<svg xmlns="http://www.w3.org/2000/svg" width="289" height="293" viewBox="0 0 289 293"><title>face/Calm</title><g id="face/Calm" fill="none" fill-rule="evenodd" stroke="none" stroke-width="1"><path id="🖍-Ink" fill="#000" d="M171.042 240.159c-7.367 2.134-15.274 2.324-22.783.12-6.81-1.998-13.804-6.397-18.817-12.217-4.453-5.17-7.337-11.454-7.223-18.161a2.96 2.96 0 0 1 .708-1.902 3.3 3.3 0 0 1 1.766-1.06c.698-.164 1.436-.106 2.064.18a2.73 2.73 0 0 1 1.36 1.338c.771 1.012 1.538 2.01 2.309 2.978 6.194 7.649 12.192 13.364 21.506 15.415 5.053 1.112 10.1.619 14.731-1.079 4.957-1.817 9.439-5.011 12.95-9.1 1.587-1.847 3.46-2.601 5.293-2.614 2.076-.014 4.128.95 5.673 2.492 1.52 1.516 2.537 3.575 2.63 5.73.08 1.89-.536 3.866-2.177 5.628-5.405 5.804-12.41 10.057-19.99 12.252m-.228-95.792c7.552 4.59 19.058 15.293 10.934 26.673-9.562 10.033-23.33-1.471-30.114-6.674-6.29-4.032-13.359 6.339-7.522 11.047 49.024 36.295 68.919-29.846 30.522-36.443-4.228-.727-5.798 3.977-3.82 5.397m-70.639-20.197c-2.427-1.552-5.282-2.085-8.446-.645-2.473 1.124-6.81 4.873-9.828 9.8-2.065 3.372-3.529 7.326-3.224 11.446.07.957-.283 1.662-.84 2.184-.44.412-1.077.714-1.824.809a4.7 4.7 0 0 1-1.922-.172c-1.098-.343-1.68-1.056-1.898-1.637-2.113-5.612-1.203-11.875 1.166-17.525 3.196-7.625 9-14.012 12.803-16.071 6.508-3.526 14.185-3.688 20.702-.097 5.547 3.057 9.016 7.991 12.466 13.021.734 1.07 1.461 2.131 2.214 3.174 1.507 2.09 1.657 4.162 1.074 5.939-.647 1.968-2.296 3.63-4.359 4.499-1.906.804-4.118.917-6.076.091-1.654-.698-3.171-2.057-4.132-4.364-1.617-3.886-4.312-8.172-7.876-10.452m123.266 8.644c-1.662.866-2.963 1.128-4.807.575a6.8 6.8 0 0 1-2.816-1.682c-.782-.782-1.346-1.754-1.566-2.833-.539-2.663-1.996-5.155-4.071-6.78-1.775-1.388-4.014-2.124-6.498-1.709-2.68.448-5.234 2.167-6.993 4.194-.588.678-1.049 1.448-1.512 2.213-.867 1.43-1.709 2.76-2.904 3.811a2.83 2.83 0 0 1-1.797.677c-.269 0-.542-.044-.801-.125-2.668-2.677-3.181-4.709-3.095-6.724.09-2.112.923-4.252 2.269-6.247 3.158-4.682 9.153-8.521 13.198-9.39 5.54-1.191 11.043.238 15.455 3.332 4.539 3.185 7.903 8.128 8.951 13.7.252 1.34.145 2.79-.366 4.045-.5 1.227-1.37 2.278-2.647 2.943M112.394 74.253c-3.325 3.24-7.26 3.74-11.241 4.187-2.212.25-3.978.452-5.716.844-4.776 1.079-9.498 2.702-13.805 5.041-4.503 2.445-9.41 5.393-12.94 9.17-.84.9-1.63 1.842-2.423 2.787a74 74 0 0 1-2.152 2.492c-.842.92-1.642 1.882-2.438 2.843-.492.81-.59 1.01-.689 1.217-.149.312-.322.661-.52 1.035-.272.513-.59 1.075-.922 1.583-.554.93-.851 1.187-1.108 1.301-.426.19-.83.284-1.222.233-.367-.047-.714-.224-1.056-.513-1.707-1.442-2.21-3.81-2.158-6.322.078-3.813 1.484-8.034 2.78-10.629 3.015-6.03 7.195-12.298 12.222-16.798 5.736-5.137 12.012-9.026 19.22-11.706 4.479-1.666 9.665-3.195 14.545-3.002 3.513.14 6.866 1.183 9.636 3.791 1.7 1.6 2.517 3.878 2.517 6.153 0 2.32-.848 4.655-2.53 6.293m117.809 29.665a1.82 1.82 0 0 1-.83.728 1.935 1.935 0 0 1-2.073-.347 1.84 1.84 0 0 1-.553-.954c-2.207-9.696-6.494-16.91-15.643-21.561-4.5-2.289-9.675-3.743-14.574-4.902-1.424-.337-2.928-.555-4.443-.776-4.748-.693-9.53-1.487-12.625-5.325-1.865-2.312-2.648-5.268-2.206-7.972.417-2.546 1.905-4.88 4.609-6.28 6.733-3.48 15.099-.064 21.898 2.845q.757.325 1.483.633c6.65 2.806 12.713 6.51 17.698 11.808 3.955 4.203 7.62 10.416 9.095 16.808 1.228 5.318.94 10.746-1.836 15.295"/></g></svg>