<svg xmlns="http://www.w3.org/2000/svg" width="1650" height="1921" viewBox="0 0 1650 1921"><path fill="#fff" d="M325.845 380.92c-11.822 6.635-21.634 11.167-30.879 14.263l-13.596 4.552 12.787 6.488c8.685 4.407 16.944 10.027 25.248 17.184l6.409 5.525 3.093-7.876c4.062-10.346 6.039-22.115 5.875-34.98l-.13-10.098zm567.897 33.416c-11.064 19.988-24.42 39.666-37.337 58.696-28.508 42-57.987 85.431-67.064 137.367-1.059 6.457-1.514 29.194-1.514 29.194l8.45-3.445c28.218-11.506 58.157-20.065 87.109-28.341 11.191-3.199 22.761-6.506 34.102-9.946 4.618-1.237 9.211-2.683 13.655-4.082 10.781-3.393 20.966-6.599 31.674-7.145l3.26-.166 1.631-2.828c14.753-25.58 3.689-49.963-8.98-72.748-7.61-16.609-17.398-32.213-26.866-47.308-9.813-15.644-19.96-31.82-27.374-48.749l-4.869-11.115zM349.238 626.232c16.772 17.596 32.351 35.475 46.305 53.14l10.596-4.875c-5.122-26.093-21.024-44.475-50.046-57.854zm561.086 393.098c-1.679 0-3.254.65-4.434 1.83-1.197 1.2-1.854 2.82-1.849 4.55l6.283-.02zm-697.922 435.05c-9.854-16.94-11.302-43.52 3.466-57.93-4.967-31.13 4.791-65.91 26.402-90.69l.05.07c32.087-48.13 34.445-65.28 11.001-119.08-41.898-1.61-85.055-2.09-125.964-11.89l1.53-9.16c-1.514-.4-9.249-2.43-10.91-2.86.222 1.7 1.375 9.48 1.347 11.03-1.911 2.1-6.53 4.04-7.389-.08C86.2 1063.61 63.168 955.615 38.142 845.599c-26.192-111.038-78.866-288.635 50.07-349.83l-2.662-11.377c-7.12.002-9.98-7.77-13.245-18.749-14.548-39.28 13.74-77.793 40.193-102.088 36.158-36.259 69.515-76.515 101.784-115.431C306.33 136.028 431.575-13.558 591.672 11.855l-.539 6.603c25.044 3.154 51.193 9.787 76.551 5.167 86.577-15.023 180.767 18.963 234.015 88.744l1.956-13.006c.184-1.227.622-2.362 2.561-2.362 2.537-.09 3.878 1.99 4.816 3.907 91.908 36.388 129.978 154.829 159.348 236.011 3.74 13.722 2.69 17.782 2.36 18.589l-5.33 3.183c55.39 73.815 85.82 162.6 111.93 246.784 8.63 22.442 9.53 37.993-4.88 51.566 95.04 57.206 169.61 146.359 127.45 247.998-55.03 98.901-200.75 161.651-310.194 218.451-43.462 23.59-106.676 36.15-146.669 74.78-2.672 3.95-6.506 7.81-8.829 7.49-18.562 2.75-46.188-113.39-41.989-122.69-19.594 7.02-41.391 6.65-61.885 10.31 1.836 4.04 7.849 9.51 3.35 14.01.305 13.64-1.789 28.38-4.786 42.29 24.595-3.95 24.037 8.97.374 2.13-.643 6.03-2.284 21.38-2.912 27.21 7.063-3.11 21.121-5.3 26.044-.43-2.011 6.48-19.431.38-26.141 2.3-3.925 29.16-5.205 57.82-7.959 86.9 20.94 19.98 53.648 24.71 72.335 46.32 15.833 16.45 13.55 44.05-5.025 57.28 11.377 13.37 2.272 35.56-14.34 39.18-22.631 5.3-46.287-2.02-68.601-8.17-37.092-12.24-75.939-31.31-118.751-58.31-16.937-10.57-29.552-27.18-35.546-46.77-43.435-134.11-55.042-225.23-34.54-270.97 11.7-8.85 24.741-3.39 35.544-8.22 5.148-2.31 9.788-5.41 13.531-16.4-56.351-5.54-138.497 4.76-183.668-22.289l1.589-3.387c-4.171-2.667-13.336-13.825-16.823-17.412 6.285 75.738 11.337 153.428 13.837 228.898 8.286 13.96 15.322 28.41 23.046 44.53 5.372 5.28 14.771 14.34 9.256 20.34-.001 0 46.38 108.79 60.554 163.79 13.495.57 18.966 23.47 18.452 38.68-2.052 27.68-37.513 30.61-68.6 33.33a625 625 0 0 1-64.688 3.39c-38.929.03-136.265-2.65-145.474-37.22"/><path fill="#fff" d="M275.162 1231.04c26.001-20.49 89.513-28.41 116.43-12.13 1.25 4.28 4.554 6.92 7.889 7.2 3.299 3.61 4.606 9.05 9.011 11.52 16.688 55.23 58.198 134.56 69.507 191.37-1.991.64 8.104 4.89 11 15 2.613 9.12-1.904 24.2-4 25-46.973 17.95-146.198 23.03-200 15-67-10-77.025-49.02-77-49-3.406-16.74-4.051-14.96 8-44 5.03-12.12-1.545-30.2 14-62 9.245-18.91 40.176-72.04 40.176-72.04 3.456-8.23 6.571-16.77 4.987-25.92m383.829-233.95-.959 1.63c-2.841 4.88-16.017 40.57-11.033 70.28 4.434 26.43 25.806 36.25 42.222 40.06 19.301 4.16 21.966-4.9 39.778-13.06-.035.84 14.562 2.42 12 13-3.974 16.41-10.531 62.5-16 92-4.997 26.96-9.383 37.17-4 57 5.021 18.49 61.018 43.58 73 55 20.226 19.28-9.577 80.98-12.657 85.53-14.615 15.41-57.487 2.97-76.967-2.67l-.583-.17-1.15-.33c-37.902-13.17-81.724-34.25-115.901-55.12-16.022-9.23-27.033-32.7-32.249-50.29-23.492-83.71-53.973-172.53-40.154-260.09 2.065-2.94 27.119-14.22 50.407-20.6 4.907-1.35 9.736-10.473 14.254-11.26 29.937-5.212 69.589-.946 79.992-.91"/><path fill="#fff" d="M52.1 520.061c44.747-28.88 94.309-28.453 147.517-4.278 39.6 17.993 77.716 46.765 121.923 88.106l1.341 1.256 1.563 1.493c25.276 24.21 47.07 48.185 65.649 72.738l1.234 1.634c.809 1.024 1.376 1.165 2.046.854l.106-.053 6.078-3.184 3.711 5.771c3.059 4.756 4.528 9.904 4.794 15.683l.029.717c.094 2.83-.055 5.271-.522 9.228l-.19 1.559-.459 3.541c-.844 6.558-1.03 9.965-.53 13.363l.087.551.095.527.353 1.876-2.235 6.925a6825 6825 0 0 0-17.471 55.011l-1.697 5.433-3.135 10.073-1.293 3.936-.671 2.067-.314 1.01a57 57 0 0 0-1.058 3.89l-.151.682c-1.266 5.887-.513 8.147 2.838 9.433 2.202.846 4.666.446 7.692-1.35l.327-.198 17.623-10.894-6.567 19.651c-1.012 3.029-2.188 5.949-3.889 9.773l-.289.646-.522 1.158-2.252 4.943-.49 1.092c-3.582 8.034-5.114 12.516-5.701 17.348l-.06.527.066.491c.216 1.5.526 2.676.891 3.535l.093.209.095.195.136.255c.166.295.276.42.345.468l.037.02.024.008.09.018c.175.03.421.038.74.012.895-.073 2.085-.394 3.499-.984 5.571-2.325 12.936-8.06 19.39-14.498l.449-.45.574-.585 25.164-26.083-12.127 33.246c-3.95 10.829-5.533 18.846-5.067 23.652.083.855.227 1.53.407 2.029q.094.258.169.395l.041.072.163.025c4.76.559 15.859-6.306 27.038-18.022l.78-.825.78-.841 17.565-19.12-4.664 25.541c-1.222 6.694.093 11.027 3.937 13.245l.353.196.282.163c3.821 2.099 8.452-.513 15.459-8.779l.634-.755.629-.763 1.011-1.25 2.352-2.954.555-.72c18.831-24.659 30.641-56.505 35.282-91.992l.144-1.122.138-1.113 1.502-12.328 5.091 3.523-.89-6.013 16.236 16.803c37.936 39.259 79.079 49.347 119.575 33.608 36.489-14.181 70.696-49.116 94.224-94.866l.709-1.389.819-1.661c6.751-13.759 13.092-28.236 17.745-41.563l.42-1.213c5.644-16.474 7.697-28.932 5.687-34.263l-.075-.192-3.227-7.89 8.237-2.196 78.623-21.014c28.378-7.549 49.802-13.152 71.149-18.585l2.496-.634 22.1-5.582-5.659 13.765c-10.789 26.241-22.007 47.561-45.305 87.76l-2.976 5.124-10.031 17.222-3.121 5.393c-24.23 42.017-37.314 68.135-47.065 96.616l-.307.9-.626 1.861c-13.011 39.058-16.301 76.12-8.631 114.737l.153.765.728 2.232c7.813 23.831 16.392 46.539 24.537 62.676l.407.802.785 1.524.392.74c2.537 4.79 4.919 8.66 7.076 11.49l.532.69c.915 1.14 1.735 2.03 2.402 2.65l.259.23.031-.05c.937-1.73 1.921-4.64 2.798-8.71l.105-.5.1-.48 4.031-19.925 10.033 18.055.364.66c1.072 2 2.004 3.94 3.264 6.78l.432.98 1.972 4.53.954 2.16c1.316 2.92 2.287 4.87 3.329 6.64l.142.24.406.67.203.32.108.12c2.162 2.37 5.975 1.66 8.141-2.1l.136-.24.129-.25c1.946-3.78 2.717-8.53 2.674-15.38l-.009-.85c-.013-.89-.035-1.74-.072-2.76l-.017-.45-.33-7.544-.04-1.187-.01-.369-.029-1.471-.039-1.363a276 276 0 0 1-.072-6.845l.001-1.338.036-8.542c.005-3.631-.024-6.066-.108-8.539l-.026-.708-1.845-43.103 16.95 40.737c2.326 5.559 4.63 10.906 7.88 18.307l.686 1.561 8.896 20.154 2.509 5.73 1.642 3.79.087-.04.942-1.11c2.097-2.49 3.405-7.02 3.908-13.06l.042-.54.037-.53.025-.39.046-.852.456-11.645.436-11.528 2.587-71.22 2.839-72.39 12.648 52.73c3.313 13.813 9.043 27.304 18.456 44.817l1.022 1.892 1.034 1.891.502.911.085-.168a23 23 0 0 0 1.028-2.469l.17-.512.09-.307.09-.281.59-2.16 1.31-1.373c1.2-1.248 2.13-3.481 2.66-6.408l.07-.403.07-.473.01-.265c.65-20.461-7.264-108.167-11.708-138.449l-.268-1.781-.103-.733-.119-.773-.149-.918c-.05-.297-.101-.593-.16-.92l-.128-.703-1.171-6.129a155 155 0 0 1-.526-2.943l-.057-.339-.207-1.306c-.998-6.537-1.119-11.749-.017-16.728 1.477-6.67 5.146-12.145 11.173-16.064l.43-.271.72-.45 3.36-1.163 2.54-.866c5.75-1.947 11.78-3.898 19.51-6.325l2.64-.828 24.62-7.65 5.56-1.756 3.49-1.117c22.94-7.386 39.54-13.597 55.2-21.006 20.41-9.655 37.3-20.679 51.39-34.058l.78-.745 4.19-4.036 4.95 3.057a464 464 0 0 1 15 9.652l2.09 1.416.63.425 1.5 1.537 20 20.362 3.34 3.444c26.04 26.926 42.14 45.959 55.5 67.119l.42.669.88 1.413c18.77 30.34 28.14 60.81 27.04 93.597l-.04.994-.01.675c-.69 25.129-10.18 48.039-27.27 69.473-13.56 17-31.06 32.314-54.38 48.9l-2.29 1.622-2.31 1.618c-68.6 49.327-143.85 92.987-225.174 131.227-25.289 11.92-51.794 23.6-80.388 35.5l-2.687 1.12-5.251 2.17-2.928 1.19-2.983 1.23-1.884.78c-27.09 11.29-44.218 20.99-58.196 34.53l-.481.46-6.707 6.57-4.926-7.99c-20.074-32.57-31.652-70.02-40.513-121.9l-.483-2.85-.477-2.88-1.121-12.91c-.665-7.54-1.193-13.24-1.728-18.58l-.381-3.73-.542-5.08-.447-2.56-1.187-6.89-.799-4.56-.434-2.43-.472-2.605c-.548-3-1.088-5.863-1.629-8.624l-.232-1.177a406 406 0 0 0-2.147-10.219l-.457-1.996-.55.193c-37.936 13.183-78.279 19.425-118.088 18.237l-1.438-.046-1.205-.045-4.113.06c-15.79.203-31.577.144-51.716-.155l-8.91-.143-13.518-.25-33.795-.671c-24.948-.465-40.438-.627-56.624-.538l-1.825.011-6.236.053-9.184.115-3.594.058-14.674.311-5.151.093c-15.911.257-25.42.084-35.782-.803l-2.158-.194-1.852-.18-.849-.188-.826-.191c-6.961-1.653-12.45-4.081-22.57-9.449l-4.596-2.451c-3.343-1.773-5.461-2.842-7.698-3.867l-.587-.267-4.024-1.814-.44-5.242c-.774-8.937-1.838-16.23-3.099-21.754l-.246-1.047-.054-.219-.046.29c-.664 4.266-.966 9.374-.827 14.926l.024.836.028.769.264 10.987c.355 13.742.813 27.246 1.534 45.446l.437 10.83 2.421 57.67.453 11.41c1.003 25.85 1.621 46.43 1.944 66.46l.065 4.29.124 9.62-6.704.79c-70.897 8.39-145.129 5.72-235.645-6.09l-2.748-.36-5.206-.69-4.669-21.03c-5.214-23.38-10.344-46-17.07-75.27l-5.799-25.17-25.581-110.528a19613 19613 0 0 1-7.26-31.561l-3.887-17.015-4.942-21.785-.279-1.476c-1.566-8.23-3.566-17.381-6.22-28.601l-.964-4.047-1.765-7.275-7.901-31.914-2.735-11.091-1.657-6.84c-6.028-25.059-10.3-44.902-13.696-64.469l-.423-2.462c-6.953-40.952-8.86-75.608-4.707-105.727 4.96-35.97 18.602-64.585 42.419-85.082l.725-.619.37-.313z"/><path d="M401.893 52.044c66.076-43.958 151.861-67.104 228.491-38.32.91.32.549 1.65-.401 1.44-12.109-2.66-24.41-4.15-36.779-4.66 25.071 3.065 49.4 9.651 74.789 5.212 84.802-14.023 174.728 14.782 231.07 80.757 1.457-9.694 13.488-9.334 17.41-2.48 74.93 26.425 117.367 125.698 145.677 194.59 3.32 12.28 26.41 63.272 15.32 69.89 52.79 72.397 82.49 158.123 108.84 242.92l.76 2.063c5.98 16.596 10.54 35.379-2.13 50.147 52.56 32.172 101.16 75.385 124.13 133.94 36.59 86.375-10.03 159.554-82.73 206.351-72.04 52.226-150.09 95.706-230.767 133.036-27.13 12.54-54.6 24.31-82.229 35.71l-2.749 1.13c-21.705 8.93-43.606 19.43-59.841 36.62-31.569 46.13-60.729-92.03-61.05-111.29-14.805 4.46-31.109 4.56-46.391 6.88 1.941 3.33 2.09 7.66-.271 11.21.036 11.28-1.157 22.64-3.359 33.8 23.455-2.08 22.643 21.6-1.809 16.14l-1.221 11.45c11.164-3.46 34.743 2.07 20.931 15.39-7.233 3.58-14.939.28-22.651.66-3.323 26.18-4.588 52.37-7.019 78.65 20.95 18.23 52.05 23.06 70.648 44.94 16.253 17.79 16.657 45.62-1.948 62.36 9.995 17.09-2.088 39.34-20.57 43.82-23.823 5.67-48.772-1.88-71.761-8.26-41.807-13.77-81.369-34.6-118.592-57.96l-1.617-1.02c-18.418-11.49-31.748-29.38-38.083-50.09l-1.354-4.19c-22.497-69.94-62.51-207.13-32.494-271.93 14.143-15.68 36.939 2.58 45.18-15.9-53.171-4.16-138.846 5.11-182.17-25.307 4.254 61.177 10.564 122.317 10.312 183.667-1.08 8.07 4.367 13.12 2.178 21.26 7.909 13.54 14.737 27.64 21.511 41.76l.428.4c7.034 6.67 16.075 20.2 6.821 28.13 31.494 46.16 48.579 100.63 62.54 154.2 14.85 3.41 20.46 31.06 19.54 44.27-4.168 35.52-46.267 35.75-73.93 38.74a627 627 0 0 1-48.61 3.2c-32.859.89-65.76-.85-98.349-5.13-26.549-2.32-55.899-9.27-69.122-34.99-10.661-18.46-12.325-46.16 2.421-62.73-4.31-31.72 5.795-64.8 25.54-89.81l.601-.76-.05-.02c-.453-.2-.413-.94 1.435-1.32l.205-.04.887-1.37c29.013-44.97 32.628-57.3 11.102-108.6l-19.56-.7c-36.247-1.32-72.873-3.23-107.95-12.25-4.969 4.14-13.71 3.66-15.66-4.46C81.926 1064 58.513 954.288 33.634 844.931 7.776 729.842-47.943 555.128 86.894 488.393c-13.773.003-16.842-16.522-20.189-26.95-12.27-40.525 14.768-77.969 43.049-104.28 99.279-99.665 173.973-225.228 292.139-305.119M212.563 1404.72c-1.866 53.66 38.739 66.52 84.441 67.89 28.479 2.71 57.17 3.54 85.759 2.42l13.467-.78c22.492-1.32 45.153-2.97 67.042-8.11 14.415-2.96 18.029-15.85 12.822-28.46-2.25 1-4.911 1.07-6.991-.39-2.33-1.63-4.019-3.36-5.3-5.4-74.059 32.96-167.248 29.35-239.02-8.57-9.197-.45-10.391-11.43-12.22-18.6m180.031-169.83c-26.917-16.28-81.429-23.35-107.43-2.87 1.782 10.3-2.384 19.82-6.29 28.99 11.863-2.83 115.054-16.73 100.479 8.63-8.16 6.58-19.269 2.05-28.7 1.16-25.293-2.1-50.761-1.43-75.979 1.43-2.198 6.17-3.047 13.08-5.781 18.89 25.541-8.42 52.262-12.46 79.061-13.9l1.489-.08c11.7-.62 25.391-3.21 34.101 6.35 7.423 10.15-9.052 17.14-17.54 16.14-36.15-1.08-72.374.26-108.491 1.81l-1.587 2.62c-25.523 42.26-31.018 58.9-20.703 109.57-.059-.05-.12-.09-.17-.14-.04 2.74-.919 5.21-2.79 7.05 77.833 25.26 150.327 23.83 227.67-1.23-11.309-56.8-33.751-110.46-50.439-165.7-4.405-2.46-5.712-7.91-9.011-11.52-3.335-.28-6.639-2.92-7.889-7.2m186.521-229.21c-33.912 23.98-18.597 52.32-9.221 84.88 13.705 47.87 24.234 96.63 35.961 145 6.908 42.97 34.074 80.23 73.158 99.55 17.581 9.27 36.87 15.26 56.581 17.72 7.61.78 16.042-.04 21.139 6.78 2.891 3.13 3.21 8.27 0 11.34-10.079 11.43-39.376 1.12-52.967-1.73-100.713-30.53-116.02-103.5-135.446-195-9.413-50.81-32.542-104.33-18.587-155.87-8.44 4.52-21.407 2.97-27.393 11.49-13.819 87.56 16.662 176.39 40.154 260.09 5.216 17.59 16.227 33.06 32.249 42.29 34.177 20.88 69.999 39.95 107.901 53.13l1.15.32c19.234 5.52 60.788 20.41 75.55 4.84 3.08-4.55 2.94-9.42-.94-12.44l-1.88-.71c-3.611-1.4-7.863-3.36-8.521-7.58l-.039-.3.139-.05c-3.139-5.76 2.953-12.21 8.41-13.62 7.691-.27 11.268-5.4 14.002-12.92 4.904-36.81-46.779-46.64-63.912-71.83-1.816 9.2-15.965 7.45-15.891-1.83-.559-28.16 5.562-56.58 9.752-84.37-6.449-.27-13.302 2.33-19.581.92-.927-5.8 17.186-11.88 22.171-13.8 1.03-4.8 2.12-9.58 3.28-14.34-40.288 2.44-21.574-10.48 3.87-14.91.792-2.69 1.487-5.47 2.119-8.21l.311-1.37a106 106 0 0 0 2.74-20.07c-17.812 8.17-37.85 13.12-57.151 8.96-34.874-8.1-52.951-50.44-38.951-82.21-3.185-11.27 3.068-23.25 8.721-32.76-22.959-.08-45.93-.71-68.878-1.39m-340.951 295.44c-.3.18-.584.39-.858.61l-.272.22.069.02c.33.07.811-.12 1.101-.82-.061.06-.061.03-.04-.03m2.12-.71c-.55.02-1.016.06-1.423.13l-.237.03-.075.12c-.142.22-.229.31-.335.45.581-.47 1.369-.69 2.07-.73m41.63-33.56c-1.878.25-3.753.48-5.641.71l-.37 1.01c2-.6 4-1.17 6.011-1.72m83.349-81.44c-33.506 3.42-67.274 1.31-100.79 5.12 6.572 9.08 11.26 19.13 15.191 29.73 27.528-25.99 71.689-18.04 104.809-8.47a347 347 0 0 1-6.12-19.71c-4.956.8-10.615-1.98-13.09-6.67m817.227-528.627c-45.8 46.675-115.02 59.506-174.26 80.111-14.379 9.009-7.35 26.861-5.52 40.419 3.43 22.255 6.16 44.617 8.13 67.05 7.32-8.464 26.49-9.57 37.22-13.01l1.43-.322c14.32-3.285 29.19-8.211 43.79-5.018 5.89 1.28 6.29 9.431 1.61 12.33-11.85 7.363-26.35 7.575-39.94 9.186l-3.48.416c-12.02 1.431-24.14 2.737-36.23 2.228-1.52.24-3.05-.34-4.01-1.37 1.51 23.452 4.53 47.239 3.5 70.73-.56 4.17-1.9 8.71-4.86 11.8l-.09.358c-1.68 5.932-7.13 16.523-13.406 8.682l-1.179-2.119c-9.216-16.634-17.955-34.026-22.411-52.601-1.483 37.564-2.683 75.109-4.181 112.661l-.049.902c-.382 6.374-1.627 14.044-5.771 18.944.366 2.92-2.246 4.62-4.579 3.57l-.31.15c-2.236 1-5.835 1.92-7.201-.81-7.87-18.41-16.25-36.527-23.93-54.987.406 9.474-.052 18.968.25 28.45.151 10.817 2.161 23.537-3 33.547-4.406 8.77-15.382 11.07-21.271 3.43-4.719-7.28-7.394-16.29-11.688-24.02-12.099 59.8-42.736-28.1-48.361-46.217a331.5 331.5 0 0 1-54.37 25.48c5.185 7.855 3.931 18.537 5.561 27.557 1.469 13.46 2.629 26.93 3.789 40.42l.429 2.59c7.061 42.19 17.345 85.31 39.982 122.04 19.164-18.76 44.308-29.84 68.899-39.78 29.611-12.21 58.981-24.98 87.95-38.63 78.307-36.82 153.707-79.99 223.987-130.528l2.39-1.672c39.06-27.49 79.76-63.535 80.76-114.827 3.37-84.084-66.93-141.444-119.58-197.14m-863.107-47.66C252.52 546.386 150.148 465.269 57.8 524.871c-86.26 73.014-17.916 248.082-.296 342.362 22.405 99.103 46.085 197.937 68.049 297.127 78.322 10.34 157.822 15.76 236.531 6.44-.89-69.94-5.609-139.79-7.151-209.757-1.434-36.048-.936-72.237-6.338-107.94-4.584-29.031 1.303-64.1-14.862-89.459-5.983-9.234-15.714-17.318-17.889-28.45-.05-.521.629-.691.959-.401 4.731 4.16 8.531 9.12 13.55 13.11l3.691 2.859c6.003 4.675 11.983 9.664 15.7 16.311.382-2.833-6.783-28.082-2.492-25.07l.809 2.214c5.77 15.874 10.972 31.933 12.453 48.916 5.664 57.887 8.829 116.059 13.679 174.03 11.698 5.274 22.446 13.027 35.221 15.83 20.923 2.071 41.876.9 62.835.623l1.965-.023c61.155-.913 122.119 2.521 183.229 1.552 62.464 2.424 126.317-13.943 179.63-46.822-29.209-131.944 71.08-226.049 117.45-338.839-53.415 13.476-106.573 27.95-159.84 42.149 7.189 17.579-16.061 67.394-24.811 85.048-46.815 92.316-141.491 152.648-226.628 64.542.04.27.069.54.1.82-2.859-2.61-6.018-4.907-9.201-7.11-4.276 35.105-15.842 70.49-37.67 98.68l-2.381 2.988c-6.808 8.492-16.666 19.659-27.568 13.242-8.027-4.342-9.537-12.793-7.98-21.32-26.226 28.548-54.8 34.997-36.88-14.129l-.593.615c-10.031 10.304-36.657 33.073-39.368 6.154 1.182-13.402 9.436-25.366 13.631-37.92-4.481 2.77-9.521 4.14-14.651 2.17-13.759-5.28-6.679-21.019-3.61-30.929a6771 6771 0 0 1 23.762-75.021c-2.794-14.838 6.054-29.602-2.241-42.5-3.55 1.86-8.331 1.47-11.76-3.11-20.12-26.8-43.21-51.63-67.451-74.73m-192.9 559.787c.021.15.021.28.03.43.771.05 1.531.12 2.3.19-.784-.19-1.558-.41-2.33-.62m660.51-96.35c-12.341-127.098 19.682-67.24-110.379-65.8.584 3.19-3.599 2.82-2.121 1.93-1.883-7.02-12.562 13.56-14.05 16.23-2.809 5.96-4.09 13.38-5.079 19.9-6.97 36.52 19.004 68.51 56.879 52.98-4.875-.4-10.353 1.36-14.399-1.76.02-.01.03-.03.049-.05-3.623-6.49 16.249-6.77 20.201-8.51 15.4-3.21 30.839-6.21 46.149-9.82 7.461-1.76 15.101-4.52 22.75-5.1m125.041-49.11c-1.11-.65-.541 1.48-.17.4.05-.14.119-.27.17-.4m140.046-678.657c-55.662 3.975-91.701 31.475-131.206 66.74-2.95 2.55-5.941 5.05-9 7.47 17.261 30.273 35.871 59.745 53.859 89.6l3.371 5.616c5.247 8.758 10.369 17.674 13.492 27.425 10.639 33.672-26.517 92.94-40.019 126.001-64.61 114.049-125.3 193.228-66.514 328.308 3.156-8.524-3.815-38.282 6.611-39.44l-.21-2.115c-3.332-34.337-3.482-75.693 6.918-106.014-5.756 58.67.483 120.158 22.712 174.926 5.816-51.922-1.89-109.928-.101-163.267-.069-8.2 12.33-8.11 12.681 0l.423 13.772c1.453 46.672 3.963 95.545 31.096 135.025 2.613-60.101-8.347-123.412 12.71-181.037 1.721-4.15 7.92-3.83 8.1 1.101.387 19.615 8.681 86.013 22.99 97.529 3.927-12.01 3.527-25.15 2.897-37.73-1.95-45.587-8.518-90.07-16.585-135.019-1.459-8.882 1.154-19.814 10.348-23.24 6.827-6.5 16.257-11.111 24.057-14.81 49.57-24.497 117.77-19.778 151.29-70.231l1.63-2.455c3.91-5.916 7.57-11.758 9.22-18.855-4.51-16.882-11.01-33.336-16.53-49.91-4.93-14.643-9.99-29.237-15.3-43.746l-1.78-4.834c-23.7-64.714-53.87-126.832-97.16-180.81M668.254 1006.97c-1.268.42-2.273 1.69-3.353 2.63l-.233.2.659-.53c.7-.56 1.331-1.08 2.301-1.82zm-293.571-33.337.3 3.92c1.92.391 3.801.88 5.681 1.36-2.181-1.58-4.21-3.33-5.981-5.28m283.601-88.55c-.22-.769.88-1.219 1.291-.542 16.178 28.468 48.026 39.801 78.689 44.312 5.22 1.221 4.58 8.431 0 9.95-17.14 5.681-36.93-1.97-50.96-12.159-14.38-10.431-24.189-24.521-29.02-41.561m308.43-16.25c-3.036 21.912-2.76 44.26-3.021 66.38 1-22.12 1.83-44.26 3.021-66.38m-446.65 38.59c3.181 1.1 6.471 1.821 9.71 2.1-3.439 1.641-7.37.82-9.71-2.1m-249.451-708.59c-48.63 55.068-91.203 115.348-143.508 167.101-30.648 27.7-59.644 65.559-35.742 107.249 5.041 1.99 5.927 9.416 1.58 12.91 1.038-.134 7.709-3.367 6.21-.72-13.399 5.72-25.18 14.01-35.33 24.04 63.24-46.525 147.094-9.277 202.25 32.42 27.221 19.89 52.53 41.81 76.23 65.401 8.481 1.519 17.25 6.049 24.319 9.589 48.756 23.423 56.395 55.075 52.372 105.67-14.633 27.895-21.555 59.794-31.75 89.701-10.486 23.249 10.143 7.58 13.1-2.561 7.179-8.936 10.643-20.811 15.044-31.199l.316-.74c1.25-2.971 3.93-5.181 7.38-4.191 2.77.794 5.339 4.22 4.264 7.187l-2.209 5.69c-10.696 27.493-21.748 55.13-30.265 83.303 28.78-17.239 43.03-49.868 58.139-78.68 4.151-7.66 15.321-.91 11.581 6.77-3.47 7.09-7.01 14.16-10.76 21.11-9.801 20.885-16.906 42.921-22.79 65.21 32.349-19.295 43.624-58.606 52.929-91.779.574-9.464 14.219-7.602 12.811 1.689-3.461 18.441-8.74 36.61-17 53.5l-2.184 12.771c-1.453 8.515-2.893 17.033-4.266 25.559.779-.38 1.62-.43 2.429-.23 28.661-28.863 40.133-68.684 50.14-106.959-4.758-16.188 1.065-32.742.4-49.431 2.531-21.367-4.36-41.279-13.903-60.357-5.719-59.019-62.559-84.619-102.188-119.31-48.537-47.97-74.057-121.418-142.279-145.193-7.093.451-13.931-1.072-20.57-3.36-.29-.08-.34-.58 0-.63 6.753-1.103 13.502-2.827 20.271-4.06 1.824-5.95 9.117-6.677 14.601-4.017 58.99-25.857 107.884-71.324 154.759-114.583-45.77-42.345-105.03-68.633-166.381-78.87m271.441 600.25c.98 1.09 1.839 2.27 2.48 3.561.175.331.155.725.21 1.09a70 70 0 0 0-2.69-4.651m-187.13-178.99c16.296 17.099 31.943 34.918 46.67 53.56-5.282-26.905-22.582-42.456-46.67-53.56m545.41-204.85c-35.383 63.921-90.786 120.071-103.74 194.19-1.04 6.34-1.111 12.761-1.241 19.16 39.499-16.106 81.082-26.14 121.83-38.501 15.445-4.127 30.444-10.622 46.67-11.449 13.374-23.189 2.633-45.888-9.14-67.039-15.338-33.578-39.6-62.617-54.379-96.361m-570.21-31.09c-10.231 5.742-20.782 10.994-31.91 14.72 9.58 4.86 18.339 11 26.45 17.99 4.075-10.378 5.601-21.619 5.46-32.71m260.13-368.48c-5.312 46.828-5.054 95.148 7.381 140.851 18.542 71.225 87.197 137.814 164.878 123.849 78.378-16.381 116.902-97.559 133.06-168.94-41.274-52.372-105.887-85.133-172.479-87.77-43.3-1.77-92.25 12.19-132.84-7.99"/></svg>