<svg xmlns="http://www.w3.org/2000/svg" width="1645" height="2555" viewBox="0 0 1645 2555"><path fill="#fff" d="M381.057 655.956c32.968 73.315 73.726 138.138 121.993 202.875-3.384-152.966-6.299-306.754-11.288-461.125-30.566 59.651-63.134 113.632-106.612 172.85-34.085 36.438-18.192 51.561-4.093 85.4M272.977 2445.57c-3.82-5.41-1.559-12.28 3.725-15.79-11.251-24.27 22.652-43 39.339-61.26 37.929-41.16 97.681-100.16 103-152.14 18.088-117.91 28.426-236.23 57.391-352.76 17.209-74.01 64.987-133.4 86.335-206.11 37.125-192.14-10.834-384.83-2.542-578.89-104.63-10.26-91.08 2.79-79.873-84.266a334 334 0 0 1-20.201-15.201c-16.704 8.915-36.423 30.767-54.817 29.617-5.822-1.36-10.019-8.66-14.013-14.934-29.538-46.592-56.996-92.138-83.878-139.091C158.786 620.273 192.41 567.18 331.074 342.417c58.397-86.805 130.126-213.121 241.375-221.886 13.43.011 27.59-.705 39.159-9.154.082-13.455 6.955-17.796 24.391-20.255 9.818-1.01 17.522-6.737 27.106-4.4 6.838-22.836 5.467-41.201 12.887-63.797 25.417-38.564 107.873-19.323 138.067-7.23 37.521 13.052 1.829 71.463 26.318 98.137 5.338 2.982 10.895 4.411 18.01 4.408 30.337-6.756 45.121 29.682 59.462 53.717 41.05 5.063 71.814 11.159 90.701 25.961 17.32 13.079 30.05 34.116 46.98 77.621 35.44 77.588 58.69 154.646 68.95 228.98 8.94 50.372 33.76 93.965 53.68 139.717 48.92 119.125 70.04 198.026 58.33 302.876-12.42-2.227-24.94-6.742-38.01-8.428l-5.29 12.506c-.33-.252-.47-.531-.49-.609-15.34 104.949 26.74 318.639-110.55 290.529-12.12 115.49-50.75 218.16-97.239 314.73-18.801 36.33-37.707 74.73-37.393 117.39l7.077.16c1.203.03 1.589.27 1.593.27 1.347.33-.217 10.84-1.727 16.79-22.209 78.49-41.415 156.97-58.659 236.4-3.64 10.71-5.212 39.52-13.636 44.41.367 3.93-11.251 11.64-12.149 11.39 2.024 15.16-5.309 21.94-5.062 37.33-.04-.36 10.303.17 9.852-.14 6.175 0 13.172 13.12 13.257 22 .563 10.71-8.482 20.77-11.644 31.28-4.902 23.05-4.137 46.41-6.318 69.61 20.585 4.67 15.965 26.56-2.086 27.63 0 0-3.288 30.59-2.639 45.83 12.384 1.49 17.886 12.53 21.976 21.09 15.232.17 29.488 7.11 43.632 14.33 32.97 16.16 65.349 33.09 94.715 50.24 25.91 17.23 82.39 36.18 53.07 72.42.44.94-6.29 17.76-15.38 16.22-44.84 4.36-215.354-32.68-254.801-40.9-13.388-3.18-71.975-10.81-47.645-30.59-9.067-25.34-9.467-73.4 17.883-79.27 2.656-23.8 22.684-32.15 42.66-23.35-.125-17.12.941-31.94 1.12-49.07-9.615-1.26-20.261-4.83-23.04-12.13-2.635-4.02-1.613-17.73 8.287-17.83.29-.02 7.443.32 7.731.31-1.146-27.71 1.27-51.22-2.878-78.98-2.224-9.22-9.501-10.72-14.264-15.46-4.471-13.79 9.278-24.93 21.041-27.25 2.995-14.02-3.329-28.87 0-42.62-7.67-.26-13.658-.65-18.64-5.31-2.163-2.12-5.704-1.48-8.456-1.66-2.667-28.95-20.716-53.66-24.72-81.5-5.64-32.96 4.99-67.35 8.798-100.94 3.084-27.93-1.832-56.51-4.288-83.95-101.08 161.37-237.572 316.87-262.009 513.3-2.602 15.12-4.18 32.04 9.76 46.85l.598.17c3.544 7.11 5.771 20.68 8.313 28.02 13.164 10.41 1.081 30.38-8.428 39.38-2.884 3.29-5.343 7.11-7.977 10.55-49.672 59.34-55.291 126.4-150.642 121.87-23.441-1.47-78.293-.72-88.816-14.56"/><path fill="#fff" d="m527.443 2265.74.483 1.25.476 1.26c6.126 16.39 6.985 21.82 3.011 31.51l-.15.36c-1.408 3.34-3.123 6.27-6.44 11.32l-3.439 5.21-1.163 1.78a229 229 0 0 0-4.182 6.71l-.78 1.31-2.636 3.94-1.711 2.58c-2.404 3.65-4.977 7.62-8.433 13l-9.515 14.84-3.985 6.17c-9.991 15.4-16.469 24.81-24.072 34.81l-1.965 2.56-1.023 1.28-1.018 1.26c-18.024 22.03-37.504 37.06-59.586 43.39l-.737.21-.689.19-.713.05c-30.856 2.49-61.722-.16-103.578-7.51l-2.687-.48-3.248-.58-7.072-1.3-1.657-1.66c-9.683-9.75-11.012-20.98-5.069-32.18 3.893-7.33 9.872-13.68 20.603-23.02l8.371-7.25c7.712-6.71 8.989-8.02 10.899-10.65l.786-1.09.37-.39c34.645-36.2 63.585-71.07 85.921-112.13l.867-1.6 1.306-2.42 2.563-1.01c20.988-8.2 44.492-7.28 64.169 2.74l.648.33.627.34.648.35c3.31 1.85 6.081 3.86 10.894 7.66l2.697 2.14 1.265.98c4.181 3.23 6.604 4.78 9.539 6.07 5.686 2.5 12.435 2.08 14.712-.37l.124-.14.108-.14 3.017-8.42zm253.604-29.3c.989 3.1-2.796 15.34-.048 19.56 2.477 3.8 11.19 2.76 17.235 2.69l1.23-.02 1.258-.03c1.973-.07 4.063-.19 6.791-.38l8.006-.59.67-.04c.215-.02.426-.03.65-.04l1.252-.06.789-.03.3-.02c9.9-.78 18.043-6.19 33.94-12.46l7.4-2.94c7.422-2.93 11.588-4.45 16.609-6l.726-.22.383-.07c14.154-2.76 31.843 2.59 55.868 14.59l1.52.76 1.634.84c3.838 1.96 7.877 4.11 12.424 6.59l7.037 3.87c4.896 2.71 10.952 6.07 13.084 7.24l2.034 1.1 1.85 1c4.606 2.46 8.282 4.32 11.478 5.78l1.053.48.252.14c27.528 14.93 52.808 29.69 76.548 44.8l1.87 1.19.63.34c28.57 15.88 28.97 41.52 2.06 59.34l-.83.54-.86.54-2.07 1.3-2.44-.18c-41.54-2.99-84.502-9.12-131.687-18.38l-4.631-.92c-35.336-7.04-70.205-15.13-119.661-27.48l-9.767-2.44-15.914-4.01-.412-.04c-17.359-1.8-26.979-14.84-26.965-32.83l.01-1.02-.002-.85c-.02-18.88 8.181-36.28 15.169-50.38l.365-.73.372-.72z"/><path fill="#fff" d="M821.382 2176.25c14.603 1.07 29.132 2.56 43.969 2.66-1.22 18.53 2.769 40.17 2.38 58.72-.7.08 5.29 7.87-29.732 17.37-9.726 2.64-57 6-57 6s2.555-28.74 8-40c5.065-10.48 31-2 31-2s1.386-42.15 1.383-42.75m-15.601-38.32c8.343-1.32 55.227-1.21 74.218 8.07 8.821 4.31 1.373 20.48-.238 21.57-9.741 6.32-26.267 3.92-37.089 3.69-10.571-.91-26.481 1.04-35.691-5.04-8.468-4.61-12.387-24.66-1.2-28.29m-10.06-496.63c42.016 6.94 89.691 54.94 135.471 36.87 8.53-2.46 17.338-4.07 26.319-2.5 4.684 1.69 2.898 7.18.398 12.03l-.367.7c-9.156 35.26-17.636 70.68-25.857 106.17-11.036 43.93-21.278 88-30.909 132.36-1.787 5.26-3.075 14.88-4.921 23.89l-1.083 4.58-.81 3.42-.247.86c-1.632 5.55-3.706 13.99-6.575 15.66.034.36-.034.75-.184 1.17-1.496.48-3.284.58-5.385.22-25.507-.89-60.056-3.29-85.539-5.23-2.091-1.31-5.009-.91-7.402-1.03-1.475-14.23-6.327-31.56-11.487-44.82l-2.721-6.97-.781-2.01c-16.836-37.58-8.694-77.96-1.695-116.86l.858-4.8c4.517-27.8-1.378-63.68-4.018-91.54l-.555-5.76a552 552 0 0 0 27.49-56.41"/><path fill="#ba98de" d="M557.088 1075.04c-3.212-.22-7.063-.4-11.324-.59-22.736-1.02-56.646-2.83-68.885-14.3q-.279-.255-.552-.54c-.025-.24-.049-.49-.072-.73-1.096-11.83.856-23.87 2.818-35.84.999-6.09 1.995-12.16 2.563-18.17.108-1.14.201-2.28.284-3.43.921.66 1.863 1.31 2.826 1.96 35.356 23.84 64.8 20 95.103 16.14 20.594-2.63 41.585-5.27 65.009.19 6.536 1.54 13.495 4.35 20.623 7.23 15.841 6.4 32.647 13.49 47.324 6 3.64-2.96 5.858-5.72 6.882-8.33 1.034-2.64.751-5.08-.413-7.32-3.758-7.23-15.512-12.53-24.575-16.28l-.966-.4-16.656-6.772c5.303.623 10.579 1.292 15.776 2.149 6.926 1.141 13.876 2.643 20.845 4.153 15.014 3.24 30.119 6.53 45.266 6.14 1.402-.4 2.468-1.05 3.228-1.91.896-1.01 1.359-2.28 1.546-3.65.557-4.088-1.227-9.019-3.31-12.137-5.593-8.549-14.198-13.843-23.52-16.989l.81-3.888c3.433.295 6.912.989 10.4 1.689 5.105 1.025 10.234 2.083 15.268 1.704 3.012-1.158 4.967-2.589 5.989-4.3 1.099-1.84 1.014-3.936.306-6.075-2.43-7.343-11.814-15.237-17.702-18.677-20.231-13.4-43.515-19.898-66.688-26.399-13.915-3.903-27.795-7.801-40.962-13.114a185 185 0 0 1-2.802-1.157q1.07-1.201 2.247-2.215c9.254-7.953 26.701-9.459 44.218-10.771 13.326-.998 26.643-1.939 35.872-6.169 6.144-2.817 10.394-7.158 11.184-14.264-.463-4.293-1.807-7.712-3.845-10.404-2.304-3.044-5.479-5.147-9.158-6.597-10.797-4.254-25.797-3.006-37.594-1.814l-5.115.525-1.814.18c-47.601 5.497-93.949 23.23-133.349 50.417q-.758.525-1.512 1.045l-1.169-1.421c-12.247-14.912-24.214-30.063-35.841-45.474-.128-.171-.257-.341-.384-.518l-.019-.629c-1.458-50.581-2.23-101.385-3.003-152.224-1.506-99.02-3.013-198.174-9.599-296.072l1.931-3.966q2.05-4.223 3.751-7.732-.711 1.167-1.464 2.411l-2.813 4.666-4.047 6.768-.052-1.636-.072.137a2.6 2.6 0 0 0-.888.009c-.969.171-1.637.804-2.06 1.616-.619 1.185-.77 2.722-.54 4.208q.048.312.118.618l-.324.618a996 996 0 0 1-1.954 3.704c-25.276 41.013-51.661 81.265-79.85 120.187-4.239 7.177-10.794 15.119-17.675 23.439-14.077 17.021-29.905 35.678-28.149 52.657 35.717 105.098 99.765 199.458 168.584 285.847.311.39.622.781.918 1.177q-.42.607-.841 1.212c-26.481 38.007-60.913 70.508-100.62 94.401-1.431.78-2.873 1.706-4.366 2.662-4.048 2.595-8.443 5.295-12.471 5.755-3.34.37-6.508-.59-9.19-4.081-59.476-91.893-115.641-186.417-164.061-284.482-41.974-77.021-21.953-165.542 19.941-237.992l3.651-6.598q4.246-7.68 8.499-15.392c57.224-103.702 116.461-210.97 205.765-289.91l1.547-1.233c23.383-18.551 49.644-35.489 79.448-40.723 5.845-.956 11.8-1.285 17.757-1.61 9.938-.543 19.891-1.052 29.197-4.711q1.411-.556 2.772-1.189.033 1.62-.043 3.15c-.727 14.535-.341 26.627 2.809 5.692.306-5.619.823-10.064 1.647-13.636 1.408-5.8 3.591-9.409 6.825-12.009 3.559-2.862 8.501-4.466 15.486-6.244l7.17-1.786 4.333-1.096c16.31 143.696 51.892 284.225 87.474 424.779 43.502 171.84 87 343.717 95.419 521.431l.096.74c.658 5.34.727 11.57-1.461 16.2-1.76 3.73-4.877 6.54-10.207 7.29-8.246 1.99-16.889 3.05-25.416 4.08-2.255.27-4.502.54-6.726.83l-4.491.59c-72.127 9.39-145.077 11.84-217.743 9.74-.572-.02-1.145-.04-1.714-.05l-.049-.39zm675.092-155.697c-.36 5.815-.87 11.621-1.54 17.405q-.12 1.146-.27 2.289c-.74-.196-1.48-.389-2.21-.581-31.21-8.094-63.78-12.702-95.98-8.96-.67.078-1.35.159-2.01.238-.07-.671 4.39 42.017-43.74 114.356-1.17 2.34-8.68 9.73-8.83 10.12-.41.04-.81.09-1.22.13-41.74 4.44-83.903 3.92-125.468-2.07-.553-.08-1.106-.16-1.657-.25-.022-.55-.04-1.11-.057-1.67-.561-19.51 2.055-38.87 4.684-58.256 2.813-20.743 5.641-41.508 4.463-62.504l.084-15.431c1.28-250.955-2.012-507.672-76.024-749.383-.205-9.657-27.642-32.779-28.28-33.494a103 103 0 0 1-8.668-11.148 98 98 0 0 1-2.559-4.021 114 114 0 0 0 4.583.94c6.754 1.247 11.573 1.551 15.367 1.792 11.026.7 14.005.668 28.607 19.407 15.699 23.462 34.169 37.884 33.476 36.724q2.013.224 4.044.467c27.454 3.287 51.959 8.487 71.565 21.02 16.15 10.325 29.01 25.599 37.46 48.896l4.34 10.145c27.65 64.768 54.64 130.551 67.02 200.166 6.68 56.015 22.61 109.48 48.38 159.573 43.36 95.156 80.43 198.108 74.44 304.1"/><path fill="#fff" d="M884.769 176.7c47.219 173.057 63.444 369.634 68.87 548.306l.329 10.937.671 22.767c-21.546 3.233-51.463.905-73.16 1.22-26.492 1.626-59.49-.204-85.347 4.113l-1.613.278-1.05.21-1.268-6.04c-38.639-183.172-94.568-373.654-128.502-557.88 5.961 3.539 13.69 4.939 20.16 6.569 44.007 10.719 95.77 8.696 140.931 6.1 25.739-.207 47.112-14.43 59.979-36.58"/><path d="M672.069 33.438c8.046-5.5-3.41 41.922-3.432 46.451l-.202.993c-2.006 9.657-5.538 20.88-13.668 27.057 3.749 30.702 8.416 61.315 14.16 91.69 51.231 6.684 102.802 16.337 154.909 11.468 27.19.236 45.259-18.21 56.376-41.19l.335-.698-2.29-8.22c-34.847-21.393-61.263-64.759-45.55-105.68 1.02-2.66 5.27-1.59 4.34 1.19-6.593 18.472-3.825 39.296 5.54 56.26 5.85 3.12 12.08 2.9 18.35 2.71 30.244-4.425 47.615 29.923 60.631 51.34l11.395 1.688c43.593 6.481 85.637 14.149 107.167 58.842l1.97 4.183c30.45 64.869 58.91 131.595 75.5 201.487 8.26 36.79 11.25 74.7 23.37 110.591 25.15 66.626 60.61 129.234 79.84 198.209 11.92 24.373 45.43 213.033 12.38 213.66-11.91-3.569-24.04-6.449-36.3-8.51 1.89 1.441 2.58 3.89 2.22 6.401-4.28 30.029-4.6 60.45-4.58 90.72 1.75 72.71 1.51 226.34-106.7 206.8-8.87 88.89-39.16 174.89-72.83 257.18-20.011 53.04-58.812 101.43-60.762 159.7 13.406.2 8.206 17.26 6.559 25.49-4.509 20.14-10.374 39.97-16.311 59.72-20.916 70.86-33.408 144.09-51.319 215.76-.969 3.45-2.599 5.8-4.679 7.38-.354 7.46-11.612 11.74-17.981 9.26.895 9.02.648 18.15.772 27.2l.028 1.7 1.95-.02c8.491-2.19 17.073 11.57 19.469 18.63 8.06 19.76-10.629 34.25-12.02 53.07-1.267 17.87-2.951 35.58-3.718 53.5 23.302 9.1 12.995 39.59-9.841 39.27 1.067 11.13 1.212 22.31 1.681 33.46 9.929 2.6 17.375 10.98 22.259 19.72 20.07 1.37 38.39 13.24 56.271 21.65a1384 1384 0 0 1 81.532 43.72c25.98 17.3 83.79 36.95 58.52 76.97 6.36 5.48 1.92 16.23-3.88 20.72l-.2.15c-5.76 4.51-13.38 4.51-20.46 3.78-82.248 2.06-168.909-23.5-250.693-40.19l-6.175-1.1c-17.902-3.21-36.229-6.8-52.135-15.54-6.728-5.48-8.375-18.86-1.49-24.26-7.06-25.55-.692-70.42 27.241-80.31 3.314-18.95 18.634-32.54 38.12-26.76.095-12.14 1.082-24.13 1.3-36.27-9.661-1.82-18.571-5.57-23.23-14.75-5.122-9.15.427-24.48 12.069-23.99.395-18.9-.674-37.49-.83-56.36l-.016-1.14c-.062-6.11.184-12.85-2.404-18.47-2.66-5.79-9.74-6.36-12.881-11.85-6.886-14.78 6.897-32.14 21.112-36.12 1.783-9.9.859-20.38 2.649-30.37-7.57-.44-14.019-2.2-19.5-6.5-3.787-.59-10.488 1.1-10.92-4.34-1.54-22.24-12.75-42.04-19.809-62.78-14.58-40.35-1.348-82.48 3.719-123.28 2.39-20.81-.129-41.71-2.259-62.57-96.2 150.77-219.601 296.55-248.111 478.43-1.582 20.47-9.935 37.32 4.741 54.98 4.926 1.43 9.131 24.57 11.029 30.4 15.032 13.92 1.933 38.76-11.15 49.53-6.262 10.82-14.637 20.3-22.478 29.99l-2.525 4.24c-16.608 27.78-34.327 55.65-56.846 78.93-37.846 28.09-101.354 20.1-145.931 15.04l-3.962-.64c-9.285-1.55-19.564-3.82-24.907-12.09-4.641-7.17-4.02-16.47 1.75-21.85-5.726-16.51 7.321-32.72 19.589-42.86 47.56-42.19 88.555-91.81 120.48-146.8 12.237-88.93 24.804-177.85 38.411-266.57 10.981-73.42 27.71-146.92 63.03-212.8l8.66-16.47c14.643-27.9 28.678-55.74 37.02-86.5 19.449-72.47 14.791-148.35 12.098-222.54-3.466-115.81-11.714-231.65-10.639-347.55-21.785-2.29-80.849-.88-90.151-23.28-3.046-21.35 4.096-43.07 5.711-64.391-4.6-3.23-9.09-6.61-13.46-10.1a345 345 0 0 1-25.05 17.071c-20.546 14.8-36.434 17.17-49.15-7.161-36.791-58.198-72.287-117.235-105.781-177.399-31.065-57.709-69.569-115.324-77.454-181.764C190.2 520.194 330.408 328.787 400.607 231.617c43.139-52.226 98.943-107.848 170.225-111.94l2.165-.108c9.56-.48 23.451.57 31.42-5.9 1.506-21.59 23.643-21.48 40.1-25.05 3.41-2.602 8.581-3.218 12.94-3.01 5.907-16.976 7.248-35.745 14.612-52.17M468.828 2254.64c-18.054-9.4-39.598-10.16-58.59-2.71-23.552 43.68-53.718 83.55-87.972 119.36-12.515 17.47-59.492 40.51-36.059 64.1l3.173.58c35.971 6.55 72.493 11.71 109.147 8.76 23.949-6.63 43.28-24.4 58.511-43.58 18.907-24.54 34.532-51.53 51.829-77.23 15.531-26.34 23.719-26.69 11.541-57.98-.021.61-.17 1.23-.481 1.86-4.3 8.68-17.5 7.88-24.95 4.61-9.71-4.27-16.77-12.82-26.149-17.77m-170.59 188.85.546.25.553.25.81.01zm684.61-157.25c-26.787-11.99-75.86-46.93-103.221-41.62-20.205 6.18-38.833 17.25-60.37 18.85l-.926.04c-15.373.65-42.697 5.79-48.473-12.31-7.648 14.62-10.164 32.73-10.05 49.28-.318 14.1 6.134 25.26 21.109 26.4l13.867 3.49c87.865 22.07 176.548 43.15 267.096 49.68 23.77-14.86 24.35-34.38-.85-47.95-25.45-16.28-51.64-31.45-78.182-45.86m-517.49-340.67c-15.736 98.54-26.301 197.64-41.54 296.23 53.187-13.3 68.807 34.42 88.609 21.11-13.851-18.25-12.191-31.99-8.09-53.22 8.129-71.51 34.738-139.54 67.731-203.03 3.76-7.25 7.619-14.46 11.529-21.65-42.423 3.87-88.088-8.23-118.239-39.44m327.659 281c-3.643 5.66-5.088 12.48-6.25 19.02-.6 3.38-.27 8.36-1.47 12.15 22.823.69 45.774-4.63 66.34-14.43l-1.003-.07c-16.761-1.03-51.398 1.33-57.617-16.67m-14.189 14.58a29.7 29.7 0 0 0-5.8 5.44c-.561 3.15 1.069 6.58 3.71 8.54.527-4.61 1.171-9.4 2.09-13.98m44.58-65.98c.07 14.27.937 28.32.779 42.57-.023 4.94 1.443 11.18-1.579 15.38l4.801.51c12.038 1.25 24.318 2.29 36.348.92.389-18.55.4-37.19 1.62-55.72-14.837-.1-27.366-2.59-41.969-3.66m45.969 56.8c-.019.57-.03 1.17-.009 1.73 1.729-.32 3.45-.71 5.149-1.16-1.398-.14-2.821.09-4.199-.38-.318-.05-.64-.09-.941-.19m-51.82-2.22c-1.52 1.72-4.484 2.03-6.359.89-.38.07-.761.12-1.16.14-.111.01-.231 0-.34 0l1.302.33c2.717.67 4.82 1.1 7.608 1.5-.49-.89-.82-1.85-1.051-2.86m62.44-.07a5.1 5.1 0 0 1-1.419 1.64l1.344-.45.665-.24c-.179-.33-.38-.64-.59-.95m-78.669-3.92c.252.59.815 1.49 1.46 1.97a9 9 0 0 1-1.46-1.97m67.669-9.18c.01.34.02.68.041 1.03.183-.2.401-.37.66-.49-.241-.18-.481-.36-.701-.54m-61.19-77.73c-11.187 3.63-7.268 17.68 1.2 22.29 9.21 6.08 23.12 5.13 33.691 6.04 10.822.23 23.348 4.63 33.089-1.69 5.081-3.43 5.126-11.21-.249-14.21-.101.24-.21.47-.321.7.071.55.021 1.17-.22 1.9-6.137 11.05-44.65 4.66-54.418-.81l-.755-.33c-6.614-2.81-12.817-4.12-12.017-13.89m13.681-162.55c2.422 10.87 1.629 22.18 3.159 33.08.961 3.16-.27 5.26-2.239 6.34 12.71 3.8 25.519 5.69 38.759 2.73-1.435-12.74 2.186-26.94 4.02-39.75zm48.529 2.67c.214 1.63.186 3.4.37 5.09.027-.04.053-.08.086-.11l.055-.05c1.599-1.39 3.05-3.17 4.58-4.71-1.679-.03-3.399-.13-5.091-.22m-66.27-329.75a552 552 0 0 1-27.49 56.41l.418 4.32c2.71 28.34 4.75 56.7.155 84.98l-.431 2.42c-7.083 39.63-15.911 80.89 1.268 119.24l.782 2.01c6.138 15.75 12.599 31.37 14.258 48.28 27.92 2 55.93 4.79 83.89 5.77 7.23 1.23 10.746-2.91 11.39-9.7 21.811-91.49 40.944-183.6 64.581-274.63l.246-.47c2.562-4.9 4.483-10.54-.277-12.26-8.981-1.57-17.789 8.04-26.319 10.5-45.78 18.07-80.455-29.93-122.471-36.87m-1.079 37.26c27.801 41.18 12.675 103.72 9.481 152.63-2.362 18.01.413 36.45-1.471 54.37-.26 1.4-2.47 1.66-3.081.4-6.553-16.5-3.863-35.48-3.289-52.84 4.09-51.35 15.671-104.36-1.64-154.56m81.274-563.93c-.104-.67-1.047-.43-1.105.15-.299 123.51-8.051 246.65-20.311 369.54-.172 2.67 4.182 3.3 4.696.64 8.818-45.64 12.38-92.15 15.365-138.5l.336-5.25c3.884-62.25 5.115-124.68 3.446-187.04-.363-13.1-.415-26.57-2.427-39.54m252.108-179.891c-1.08 1.281-2.26 2.05-3.46 2.44.01 28.86-5.81 57.261-21.76 82.261-7 9.27-10.77 19.97-14.12 30.98.96 2.99-.25 6.43-2.5 8.15-14.74 44.85-16.26 92.87-10.82 139.46 16.57-24.34 23.15-53.4 27.79-82.04.25-1.44 2.63-1.42 2.89 0 5.5 30.63-3.82 61.21-15.86 89.2-6.68 5.65-5.25 18.47-6.02 26.48 122.19 17.8 79.69-217.08 95.35-289.421.29-2 1.98-3.439 3.9-4.059-18.33-2.788-36.9-3.002-55.39-3.451M641.647 93.779l-2.116.534c-22.298 5.575-28.207 5.702-29.625 31.946-5.549 37.026-26.036 69.36-35.247 105.171-3.683 12.649.204 35.955 17.678 32.55 5.66-1.741 10.071 5.889 5.79 9.949-12.65 11.97-24.929 24.32-37.28 36.6 49.592 167.599 114.021 330.849 192.49 487.03 3.111 6.19-6.219 11.65-9.309 5.44-78.023-156.683-142.903-319.882-193.26-487.519l-1.522-5.082c-2.223-6.168 26.212-28.285 31.391-35.509-51.854-25 20.36-112.551 22.471-154.63-15.02 5.88-31.666 3.865-47.341 6.43-30.122 5.27-56.556 22.72-80.054 41.507-95.441 84.393-156.445 201.233-217.46 311.354-41.556 71.872-61.584 159.692-19.887 236.13 48.38 97.991 104.522 192.452 163.851 284.15 6.527 8.48 16.541-1.266 23.41-4.841 39.466-23.74 73.691-56.05 100.01-93.83-69.013-86.623-133.216-181.276-168.992-286.681-2.858-25.642 33.041-55.343 46.143-77.629 28.926-39.957 55.953-81.271 81.759-123.29-.811-4.153.904-8.707 5.3-8.59l2.554-4.263c19.708-32.8 21.902-34.072 2.337 6.053 9.927 148.018 8.275 298.893 12.569 447.851 11.61 15.379 23.561 30.509 35.79 45.399 39.676-27.365 86.344-45.224 134.272-50.75l2.46-.245c20.286-2.076 54.593-6.409 57.29 20.337-3.618 32.741-70.39 14.153-91.982 32.728 35.216 14.199 75.577 18.216 107.91 39.641 10.372 6.041 30.702 25.369 10.84 32.75-8.668.75-17.618-2.645-26.279-3.371 9.746 3.281 18.711 8.862 24.42 17.591 4.109 5.989 7.109 18.41-2.711 20.98-22.389.61-44.682-6.66-66.73-10.321l1.96.801c16.079 6.6 41.056 18.41 19.41 35.88-21.676 11.22-47.911-7.88-69.499-12.98-58.174-13.52-101.148 23.58-160.771-16.61-1.674 17.7-7.024 35.91-5.381 53.63 14.342 13.42 58.975 12.98 78.941 14.75l-.022-.68c-.291-10.88 2.604-9.77 3.152.81 50.545 1.55 101.208.61 151.651-3.02 21.647-1.6 43.259-3.76 64.784-6.56l4.035-.53c11.061-1.48 22.62-2.46 33.48-5.1 11.111-1.49 11.126-13.37 9.948-22.08-15.251-322.299-146.014-625.353-182.628-943.88m205.53 26.62c2.57 3.82 5.42 7.47 8.5 10.92 4.742-7.342 16.279-11.502 19.562-.54 3.698 11.268 8.981 22.841 9.138 34.78 75.578 246.836 77.5 509.311 76.028 765.35 2.263 40.616-10.311 80.361-9.148 120.761 41.401 5.96 83.403 6.47 124.973 2.06 1.23-3.23 2.62-6.42 4.19-9.54 62.23-75.991 29.24-171.243-.73-253.561-18.12.751-36.35-.378-54.48-.17 5.6 17.375 7.05 35.755 10.03 53.72 2.03 12.801 4.62 25.505 7.6 38.119l.8 3.362c1.12 4.649 2.61 9.669.98 14.28-1.6 4.549-7.12 6.389-10.78 2.849-6.6-7.536-5.89-18.765-8.02-28.12l-.4-2.939c-3.63-26.818-8.41-54.683-1.77-81.271-6.52-1.419-24.33 3.747-25.265-5.03.276-14.488-10.22-45.9 1.462-55.449 6.953-5.311 18.903-3.631 27.053-3.96 9.42-.381 18.83-.731 28.24-.671-75.627-183.072-54.59-239.446-46.92-421.65l.23-5.56c-.02-1.19 1.91-1.49 2.12-.28 11.56 74.632-3.85 150.202 3.45 225.06 12.97 142.262 102.94 264.39 117.99 405.96 32.45-3.758 65.26.849 96.71 9.021.66-5.75 1.17-11.521 1.53-17.301 5.96-105.656-31.04-208.299-74.23-303.061-25.88-50.327-41.88-104-48.57-160.149-13.01-73.116-42.18-142.003-71.25-209.916-18.38-50.801-58.123-62.774-107.403-68.674 16.62 27.6 33.14 55.26 49.631 82.94 3.682 8.366-7.595 14.356-12.52 19.5 60.532 33.092 25.188 135.193 26.44 192.44-4.494 52.567-6.189 105.478-14.11 157.69-.58 3.611-6.12 2.56-6.172-.84.731-78.243 10.044-156.181 14.131-234.291l.497-5.695c3.187-36.984 6.299-90.336-38.086-100.494-5.99-.97-6.45-9.89-1.641-12.569 6.401-3.571 12.01-7.941 17.03-13.121-25.325-40.753-47.413-83.657-74.06-123.508l-1.113-1.42c-17.787-22.56-16.55-14.405-41.647-19.032M724.848 867.367c-4.922-14.445-52.411-5.026-65.11-3.467-46.781 8.859-93.861 29.599-129.491 61.54-2.2 1.969-4.799 1.939-6.85.869-15.971 20.421-34.385 38.929-54.6 55.2 3.7 2.91 7.5 5.75 11.41 8.45 1.871.2 3.56 1.17 4.321 2.92 55.608 40.351 96.527 8.871 154.289 16.151 21.571 4.35 41.435 18.1 63.66 18.67 16.311-3.72 1.948-10.55-5.67-13.19-21.85-10.45-44.239-19.721-66.56-29.11-6.929-2.911-4.549-13.401 3.19-11.571 13.551 3.2 27.141 6.25 40.74 9.231 26.152 5.36 52.93 12.212 79.361 14.8-5.87-16.348-68.219-34.034-86.332-40.519-6.851-3.258-26.371-2.617-24.138-13.263 1.801-9.877 22.584 1.437 29.5 2.251 28.274 7.169 57.128 11.548 85.939 15.91-30.948-31.09-78.909-33.789-118.429-48.34l-1.307-.302c-6.925-1.647-16.18-4.692-10.897-12.434l.175-.252c20.327-30.006 100.186-14.794 96.799-33.544m-58.471-166.978c14.404-11.881 22.139 12.497 21.22 23.801.681 9.38 1.41 18.77 2.021 28.16-.895 7.351 6.918 34.108-3.531 34.35-45.664-2.303-91.25-1.752-136.929-4.481-.061 9.221-.511 18.441-.04 27.691-.248 11.545 3.759 23.105 1.419 34.509-1.429 5.26-8.56 5.96-11.342 1.481-8.347-19.662-2.604-45.026 3.302-64.92-34.504-8.784-17.876-36.614-17.87-60.931-.05-.639.59-.969 1.111-.849 8.553 11.967-2.586 27.935 2.299 40.95 5.049 14.226 26.486 12.918 38.596 13.152l.364.008c37.716.654 75.406 2.211 113.121 2.94-1.611-12.72-2.05-25.75-3.02-38.47-1.222-9.129.544-19.965-4.101-28.151-20.972 6.817-42.805 9.547-64.85 9.112-26.279.71-53.916 3.086-79.6-.062 36.834-5.691 77.524-4.866 115.06-12.09 7.46-1.935 15.073-5.851 22.77-6.2m-181.299-274.6c-22.724 43.421-48.843 84.761-76.67 125-5.96 8.6-12.08 17.08-18.299 25.5l-1.151 1.475c-12.426 15.81-25.332 28.925-13.59 49.905 30.774 74.85 71.956 145.15 119.679 210.39l-.817-37.481c-2.706-124.94-5.266-249.887-9.152-374.789m570.902 301.76c-57.041 11.992-58.132-10.457-48.6 53.03 22.88.156 45.75-.36 68.64.01-6.54-17.729-13.32-35.38-20.04-53.04m-171.263-542.94c-12.867 22.15-34.24 36.373-59.979 36.58-45.161 2.596-90.924-.381-134.931-11.1-6.47-1.63-14.199-3.03-20.16-6.569 33.934 184.227 88.863 363.708 127.502 546.88l1.268 6.04 1.05-.21c26.303-4.673 54.916-2.731 81.96-4.391 21.697-.315 43.614 2.013 65.16-1.22l-.671-22.767c-5.435-182.235-13.016-366.654-61.199-543.243m-18.87-52.661c-2.388-.033-6.045 1.391-8.479 1.221a111.6 111.6 0 0 0 16.229 14.27c-2.645-4.959-4.708-10.908-7.75-15.491"/></svg>