<svg xmlns="http://www.w3.org/2000/svg" width="1645" height="2500" viewBox="0 0 1645 2500"><title>pose/standing/robot_dance-1</title><g id="pose/standing/robot_dance-1" fill="currentColor" fill-rule="evenodd" stroke="none" stroke-width="1" color="#666"><path id="🎨-Background" d="M354.966 903.914c.169 11.491 1.32 37.88 4.203 49.005-32.119-51.5-80.247-107.788-87.566-170.865 2.281-.624 12.402-1.558 14.17-2.884 16.617 7.722 13.473-16.045 15.929-27.038 6.632-23.273 20.566-46.166 26.62-69.594 15.915-6.884-16.044-9.8-20.687-9.937 19.304-21.5 28.183-51.055 41.927-76.135 20.196-42.624 38.284-86.197 54.434-130.452 3.53 27.73 4.163 55.76 2.012 83.643-6.64 119.432-51.492 234.27-51.042 354.257M1469.715 691.76c-9.993 1.68-26.645 3.27-36.617 4.087 13.09-7.805 51.776-22.677 27.396-36.041-7.517-2.746-15.584 1.17-23.164 2.382-31.48 5.183-70.353 4.91-102.2 2.298 11.609-9.532 26.894-23.26 38.224-33.125 6.022-5.241 11.86-7.228 5.087-15.055-11.939-11.122-33.289-2.932-47.092 1.957-38.077 21.34-81.071 44.487-121.938 60.906-.428-5.728-.164-13.133-5.684-16.98-16.194-7.635-28.116-5.403-45.347-7.435-20.083-3.011-37.933-6.436-57.822-11.75-13.008-9.924-20.94-39.192-41.741-35.92 18.422-46.378-9.657-94.764-20.205-139.171-13.164-45.447-20.08-92.645-20.268-139.899-.129-75.655-43.934-133.704-107.23-172.525-24.953-16.857-41.71-57.858-72.603-66.07-3.929-15.082-4.167-21.706-7.617-36.902-1.732-4.365-3.02-28.05-7.375-27.243-4.804-23.461-29.283-32.87-50.466-37.784-27.542-5.71-65.977-12.627-90.736 3.485-7.172 5.969-10.322 15.964-10.848 24.893-2.75 11.89-8.473 24.208-15.143 34.524-11.384-3.847-4.941-11.017-16.2-12.687-102.802-15.243-216.914 60.203-283.614 133.803C235.606 295.71 139.019 465.263 154.83 642.278c-4.252-.628-23.1-3.583-22.83 2.375.926 25.904 5.69 47.51 7.005 73.395-1.307 34.29 34.305 38.422 60.031 46.878-1.584 99.488 34.546 199 91.096 280.781 13.739 16.092 34.353 71.934 59.43 49.69 2.955-3.458-19.963-27.411-24.04-33.329-13.922-17.533-50.8-104.345-24.737-121.684 5.794 18.74 61.9 108.85 71.902 57.704 13.283 7.713 35.233 12.976 51.113 12.179 29.852 16.177 58.9 33.647 87.568 51.801 13.353 26.236 32.94 51.433 49.35 76.622-113.565 262.421-224.413 694.338-370.557 941.506-12.743 16.141 57.356 43.575 69.738 49.498-23.678 38.462-26.643 83.03-44.656 124.446-3.431-.555-6.893.175-9.988 1.832-22.22 15.054-30.606 68.947-31.873 95.519 1.026 11.854-3.366 29.78 6.22 38.508-1.34 1.451-2.34 3.223-3.052 5.033-6.746 5.253-5.915 16.862-2.309 24.06 12.689 26.346 105.433 23.902 135.53 29.537 106.61 9.034 196.09 10.457 302.685.582 13.083-2.741 3.189-23.162-3.271-28.7 2.984-1.817 4.892-5.133 3.586-9.394-24.233-69.33-111.818-64.639-164.816-101.663 13.936-8.063 4.941-5.49-3.814-2.354-9.292-5.842-18.332-12.416-26.705-19.679 6.431-3.972 3.26-6.596-3.698-3.27-10.965-8.797-19.506-22.395-33.474-26.658-13.682-3.353-13.682-9.206-13.682-12.896 8.143-32.752 17.037-66.34 21.608-99.556 4.876 7.194 46.949-50.452 55.951-64.845 34.978-55.42 34.884-110.03 59.361-170.298 50.265-131.246 153.23-406.32 216.022-531.842 146.919 239.503 75.36 563.423 165.993 818.816 4.028 7.672 11.602 36.448 22.092 28.147 4.078.955 8.413 1.468 12.296 2.018-1.121 27.92-3.212 55.764-7.85 83.39-4.319 1.142-7.989 3.41-9.89 7.377-7.275-5.344-21.202 73.491-22.395 81.522-.018 10.358-8.944 33.424-.792 39.58-11.745 4.808-13.665 22.58-5.404 31.718 24.53 32.981 144.094 23.917 188.204 29.446 55.78-1.385 289.13 19.508 305.332-33.428 3.22-12.085-2.3-27.34-13.53-31.99 4.493-10.496-6.269-20.628-12.852-27.993-38.824-40.398-98.52-46.762-150.21-64.344 1.928-1.975-67.473-37.55-82.518-46.343.993-11.946-23.82.03-23.889 0-11.83-20.917-20.21-53.462-28.143-76.027 14.64-4.54 49.912-8.573 56.45-23.073 21.01-7.05-.065-37.533-4.418-51.83-123.162-308.281-6.314-697.132-188.095-988.1 33.321-19.09 71.549-60.87 38.634-95.919-6.587-8.425-22.7-34.657-22.434-30.077-6.12-24.976-19.79-67.997-24.05-93.252-15.637-92.725-5.387-179.564 7.85-273.208 18.377 70.464 81.719 129.17 146.155 161.363 25.148 10.38 58.355 31.806 85.964 25.047 24.918-7.375 70.172-58.548 75.505-83.126 72.64 8.64 148.061 1.705 217.48-21.138 8.912-3.372 19.457-3.086 16.702-15.738-2.748-10.738-22.343-8-30.768-6.005 12.879-7.142 46.311-9.011 46.064-27.683-.444-3.892-3.316-6.115-7.292-5.446"/><path id="🖍-Ink" d="M671.722.998c1.105.448 1.859 2.13 2.306 4.655 1.23.384 2.284 1.293 2.6 2.662.933 4.026-.157 8.224-.997 12.237l-.095.462a117 117 0 0 1-2.955 11.532l-.174.959c-2.892 15.648-8.466 30.526-15.012 27.998l1.512 2.756c25.687 46.64 99.06 171.868 156.349 154.018 33.36-13.377 32.883-56.86 30.444-87.124-24.77 15.2-29.404-101.156-24.326-114.014 4.043-2.975 5.993 23.791 7.497 27.481 3.282 14.682 7.307 29.175 11.086 43.735a60.1 60.1 0 0 1 22.22 9.332c.318.183.646.35.958.54 4.008 2.44 7.135 5.551 9.923 8.998 3.15 3.527 5.846 7.388 8.39 11.357 5.595 6.36 10.928 12.954 16.439 19.381a236 236 0 0 0 8.029 8.89l2.11 1.774q.53.441 1.06.878c63.29 39.533 107.106 98.684 107.229 175.73.187 48.133 7.103 96.207 20.267 142.5 10.547 45.231 44.625 91.463 26.203 138.7 20.8-3.333 22.733 23.423 35.74 33.533l4.088 1.107c18.274 4.92 35.035 9.024 53.732 11.88 17.232 2.07 37.153-.205 53.345 7.572 5.52 3.92 3.545 10.99 3.975 16.824 40.865-16.725 77.567-39.83 115.644-61.566l1.275-.456c14.094-5.006 39.235-12.527 50.815-1.537 6.773 7.972-.065 15.09-6.086 20.428-11.33 10.047-23.35 19.263-34.957 28.973 31.279 2.613 62.656.529 93.59-4.548l1.687-.28c7.579-1.234 16.516-4.186 24.034-1.389 24.378 13.613-3.83 29.503-16.92 37.455a349 349 0 0 0 29.923-3.784c3.975-.68 6.847 1.584 7.286 5.548.252 19.02-24.788 20.044-37.665 27.318l1.032-.244c8.419-1.95 20.524-3.664 23.162 6.834 2.756 12.888-14.61 18.095-23.52 21.53-69.417 23.267-144.836 30.331-217.472 21.53-5.332 25.035-50.587 77.16-75.504 84.671-27.608 6.886-60.814-14.939-85.961-25.512-64.434-32.792-124.136-86.886-142.512-158.658-15.443 111.284-9.201 223.476 13.982 332.968 3.753 8.536 7.713 16.94 12.168 25.13 1.346.215 2.485 1.115 2.748 2.937.137.997.338 1.967.565 2.924 4.436 7.54 9.298 14.785 13.812 22.282a79 79 0 0 1 2.696 4.803c30.05 35.46-6.576 81.153-39.334 100.27 181.775 296.374 64.37 669.865 187.528 983.874l.273.894c4.675 14.935 18.912 45.676-1.678 52.712-6.537 14.77-39.48 16.513-54.117 21.138 7.93 22.984 16.75 45.715 28.58 67.022l.214.094c4.712-3.467 14.816-7.049 18.992-3.27a9.4 9.4 0 0 1 3.016.904c6.463 3.215 11.662 9.358 17.844 13.225a95 95 0 0 0 10.397 5.651c3.33 1.544 6.87 2.562 9.589 5.108.859.803 1.076 1.824.864 2.764q3.22 1.672 6.427 3.356l1.16-.727c18.89-11.775 34.08-18.154 6.602 4.467 9.846 4.555 19.944 8.54 30.106 12.271 7.719-3.714 15.957-6.424 24.45-6.797 1.528 1.891-10.147 9.192-12.073 11.204 51.687 17.91 108.538 31.932 147.359 73.082l.87.983c6.611 7.406 16.28 17.299 11.982 27.527 11.229 4.738 16.752 20.277 13.529 32.585-16.2 53.92-264.543 32.641-320.32 34.05-44.108-5.63-163.67 3.601-188.198-29.993-8.26-9.309-6.341-27.41 5.405-32.308-8.152-6.269.773-29.764.793-40.315l.187-1.22c1.249-7.877 6.661-38.708 12.279-60.253.115-1.697.34-3.435.612-5.188l.176-1.112c1.117-6.867 2.831-13.851 7.265-19.376 3.184-3.964 7.596-6.412 12.383-7.297 1.283-8.203 2.336-16.426 3.24-24.66.637-9.685.879-19.386.77-29.089a396 396 0 0 0-.425-14.694c-.176-3.6.03-7.88-.884-11.562-.61.623-1.476.958-2.447.625-2.063-.707-3.962-2.01-5.856-3.079-.071-.04-.128-.087-.19-.13-10.113 6.57-17.432-21.549-21.366-29.182-90.63-260.138-19.072-559.519-165.987-803.472-20.282 43.556-37.711 83.513-57.233 127.373-60.968 136.972-136.233 378.244-186.708 523.278-13.733 29.647-29.875 58.302-49.063 84.775-6.134 6.96-10.25 17.201-19.13 20.941l-.777.12c-2.37 4.43-5.66 8.163-10.552 8.038a25.5 25.5 0 0 1-3.66-.379c-4.336 30.18-9.788 60.55-17.036 90.247l.977-.41c4.744-1.961 9.733-3.633 14.603-3.196 11.816 2.992 7.44 13.331-1.9 16.741 11.627 3.614 19.494 13.807 28.127 22.293 7.296-3.935 15.474-5.976 24.213-5.116 1.338.131 2.358.716 3.067 1.52a9.3 9.3 0 0 1 1.45.108l-.951.574c1.552 2.612.444 6.59-3.566 6.61a51.5 51.5 0 0 0-9.11.846 217 217 0 0 0-6.057 3.65c6.737 5.953 13.91 11.444 21.296 16.465a78.3 78.3 0 0 1 12.317-5.008c5.539-1.732 7.957 7.08 2.393 8.678a68 68 0 0 0-3.513 1.12l-1.142.691q-.4.24-.834.496c52.997 37.712 142.578 32.934 166.81 103.552.803 2.664.39 4.964-.737 6.773 5.252 4.821 7.675 13.488 6.492 20.137l.1.56c.902 5.381-.395 10.105-6.17 11.331-38.541 3.594-76.988 5.877-115.697 6.582l-3.124.026c-55.459.373-325.21-1.644-337.378-37.285-3.245-6.598-4.245-16.836.503-22.719.55-3.166 1.636-6.049 3.565-8.307-7.813-7.897-3.97-27.805-4.926-37.83 1.715-33.475 8.5-69.368 28.945-96.76.334-.433.738-.7 1.155-.83 3.57-3.59 8.26-5.859 13.625-6.164.167-.416.337-.834.5-1.25 4.17-9.842 8.13-19.863 12.066-29.932 2.92-11.44 5.966-22.85 9.017-34.203a3050 3050 0 0 0 8.95-34.066c2.324-9.066 4.323-19.283 8.345-27.947-.11-.37-.214-.739-.334-1.109l-4.186-1.695c-27.413-11.151-70.85-29.96-61.306-42.382 101.699-211.489 201.248-512.573 294.576-731.825 1.458-4.299 3-8.573 4.693-12.807 4.121-10.307 8.296-20.6 12.53-30.863l2.549-6.155 40.659-97.908c4.256-10.248 9.054-20.442 12.408-31.03 3.232-10.2 4.1-20.348-2.04-29.63-5.494-8.306-13.236-15.18-19.43-22.98-4.684-5.902-9.25-12.204-13.342-18.825-3.716-4.905-6.822-10.517-9.593-15.04-4.441-7.247-10.088-15.272-13.311-23.646a1543 1543 0 0 0-12.502-7.815c-7.22-4.05-14.322-8.29-21.236-12.877a1286 1286 0 0 0-26.377-15.292q-4.795-2.382-9.6-4.747c-9.595.832-36.105-11.005-45.136-19.014a68 68 0 0 1-3.08-.699c-.408 5.115-2.078 9.747-5.97 13.182-25.876 12.851-58.858-45.35-67.948-64.77-18.064 17.66 25.038 105.021 38.96 122.88l.743 1.107c3.724 5.585 7.628 11.855 12.91 15.98l.534.406c3.62 2.68 4.293 6.87 1.339 10.391-25.077 22.658-51.401-27.094-65.14-43.485-56.545-83.3-92.676-184.663-91.092-285.998-25.724-8.614-61.336-12.822-60.03-47.75-1.314-26.365-6.078-52.448-7.007-78.833-.265-6.068 18.58-3.058 22.834-2.418-6.265-60.624 3.2-122.174 20.084-180.439C217.239 311.741 399.762 43.035 579.413 33.334c-.157-.293-.083-.688.32-.793 8.13-2.113 17.117-1.775 25.473-1.509 8.697.276 17.537.336 26.188 1.32 8.966 1.017 18.46 4.315 24.483 10.841l2.086-3.767c2.422-4.398 4.755-8.84 6.518-13.694.893-2.452 1.592-4.994 2.23-7.563.72-3.664.902-7.478 2.635-10.806.046-.087.103-.159.153-.24.623-2.097 1.336-4.15 2.223-6.125m220.49 2443.668c-2.567 2.612-7.018 3.75-10.96 2.502-13.101 37.247 57.976 34.911 80.788 37.006 24.325 2.594 467.42 25.656 392.486-28.956-87.914 33.53-381.957 37.228-462.313-10.552M1108 2296.972c-5.915 6.104-14.834 8.82-21.18 14.644-17.936 15.183-32.365 36.543-57.155 40.566-32.568 6.082-61.928-10-91.06-22.738-3.627-.174-7.411-1.707-11.13-2.844-.131.27-.262.541-.412.79a3 3 0 0 0-.59-.166c-.324-.054-.631-.088-.948-.135a14.4 14.4 0 0 0-2.352-1.525 17 17 0 0 0-1.47-.165c-6.004-.367-12.521 1.03-16.374 6.01-.33.424-.63.871-.918 1.326-1.867 6.62-2.106 14.631-1.205 20.233.292 1.83-.47 3.63-1.76 4.667-1.151 27.711-4.27 55.538-6.446 82.882 10.896 3.918 22.202 6.901 33.518 8.79 78.087 9.606 157.008 14.068 235.695 11.654 46.842-1.694 93.618-5.882 139.974-12.845 14.985-1.412 30.323-7.213 45.298-4.87.638-1.205 1.633-2.236 3.015-2.939-38.384-52.596-103.992-66.813-161.19-89.873-9.446 6.043-15.262 18.628-25.784 22.377-4.085.613-9.765-1.797-9.166-6.982 1.698-10.616 13.158-15.458 20.875-21.62-8.281-3.87-16.404-8.076-24.328-12.752-7.784 7.02-16.996 12.362-24.284 19.85 4.143 10.12-13.128 9.244-13.321-1.527 1.195-11.916 20.062-16.96 28.489-23.909-13.162-8.015-24.918-18.124-35.791-28.899m-927.352 104.132c-.46.906-1.208 1.73-2.317 2.372-1.92 1.112-.998 6.987-.901 8.968l.006.144c.105 3.556.327 7.102.635 10.643 3.24 2.924 7.383 5.146 11.986 6.484 140.185 22.381 283.06 24.198 424.598 16.073-.651-3.764-3.402-6.864-5.837-10.004-89.478 7.611-181.108-.353-270.736-7.767-52.398-6.892-107.298-9.745-157.434-26.913m204.093-137.73c-23.104 7.956-44.602 18.997-65.08 32.224-7.61 4.953-14.873 10.633-23.621 13.474-30.29 9.121-75.703-34.694-76.431-35.185-10.52-7.086-21.673-.48-27.396 9.341-.53.908-9.302 51.137-9.037 75.741-1.574 8.364 2.626 22.037.39 31.156 1.758 2.117 4.263 3.112 5.95 5.326.61.801.438 1.708-.09 2.391 81.796 6.735 163.116 19.515 245.3 22.213 56.249 2.977 112.604 2.292 168.86 1.61-12.798-37.6-56.394-47.53-89.694-59.909-25.16-9.043-48.324-22.518-68.706-39.838-8.84 6.208-15.81 14.908-22.071 23.65-2.845 3.551-8.688 6.234-11.735 1.311-3.138-5.107 2.988-11.563 10.552-17.218 3.978-5.895 8.995-10.917 14.772-15.055-6.387-5.696-12.537-11.63-18.298-17.94-11.947 8.098-20.724 19.75-29.318 31.056-4.13 4.507-11.854-1.453-8.466-6.533 2.715-3.503 5.77-6.733 9.043-9.76 4.932-9.31 12.033-17.905 20.648-23.859l-.657-.834c-7.197-9.241-13.418-20.327-24.915-23.362m-203.564 131.83q-.296.366-.628.707c.198.404.35.828.462 1.26l2.099.167c-.73-.605-1.371-1.34-1.933-2.134m871.297-170.085c-42.855 8.096-87.126 11.21-130.382 4.523 5.01 27.951 8.147 56.077 6.504 84.462 64.675 18.68 91.547 49.828 145.358-12.422-2.6-3.96-4.1-8.824-5.846-13.514-7.436-20.354-13.582-41.407-15.634-63.049m-787.13-91.675c-.611 1.353-1.713 2.465-3.301 2.956a340 340 0 0 1-1.775 7.5c-1.05 12.877-5.908 25.643-10.932 37.524l-1.025 2.461c-3.314 9.881-6.788 19.743-10.215 29.615-2.596 10.256-4.883 20.596-7.273 30.901a137 137 0 0 1-2.978 20.771 7 7 0 0 1-.271.897c2.395 1.068 4.707 2.306 6.887 3.557 65.616 49.321 54.284 16.346 117.285-11.267-.363-2.652.965-5.047 2.048-7.793l.14-.36q.098-.26.197-.522a10.3 10.3 0 0 1 .234-3.367c6.38-26.112 15.266-51.77 23.582-77.319 1.33-3.847 2.872-7.607 4.447-11.36-39.946-.515-79.458-11.156-117.05-24.194m-17.281 12.685c-.774 3.412-1.615 6.778-2.382 10.03l-1.131 4.85c1.609-4.904 2.878-9.876 3.513-14.88M628.06 39.705c-13.903 3.384-28.15 4.766-42.133 7.573-96.37 11.497-170.253 79.862-233.896 147.742-120.56 126.677-190.702 282.546-185.525 458.713 43.053 7.846 85.662 19.331 129.527 21.84-6.375-9.66 4.3-21.743 7.976-30.992 63.447-122.63 112.436-258.004 152.217-387.109l-1.082 5.635c-12.49 64.796-27.04 129.317-49.248 191.56 6.433-6.328 112.11-90.408 103.85-62.606-32.286 25.245-68.753 45.25-102.584 68.417 40.225 134.421-17.928 270.62-28.977 405.096-2.776 29.901-2.535 60.01-6.266 89.798-1.42 3.368.075 10.22-2.014 13.425 1.547 7.906 4.8 15.11 11.516 21.281 2.827 2.598 5.913 4.848 9.157 6.856 8.099 1.222 16.234 4.343 22.83 7.232 14.677 6.43 27.594 15.91 40.713 24.966l.35.238c21.154 10.873 42.285 23.224 63.494 36.105l.947.496c7.889 4.142 15.955 7.878 22.829 13.621.313.263.522.563.659.877l12.882 7.959c103.186 63.704 209.578 126.704 330.559 81.231 33.99-13.696 83.406-41.446 77.06-84.355-1.251-4.116-3.154-7.98-5.306-11.744a93 93 0 0 0-1.832-2.385c-4.688-5.926-9.935-11.365-14.006-17.767a73 73 0 0 1-4.44-8.046c-.918-.279-1.734-.925-2.248-2.049-5.823-12.704-11.527-25.43-16.84-38.36C853.83 780.356 932 539.038 954.116 312.507c1.533-12.972 3.79-26.076 3.784-39.142 0-.613.888-.593.937 0 7.8 57.818 1.883 116.174-5.533 173.731-9.495 72.004-21.97 143.71-30.541 215.843 22.785 72.71 86.595 125.25 153.598 156.754a378 378 0 0 0 34.94 14.498l.798.277c13.06 4.57 27.798 11.637 40.397 2.375 24.178-16.414 41.247-41.46 56.916-65.582-6.34-.687-12.686-1.282-19.038-1.719-15.596 17.845-34.705 32.994-54.871 45.374-8.218 4.712-17.554 2.72-21.353-6.504-3.586-8.702.804-18.867 3.983-27.258l.46-1.225c16.094-43.415 44.039-83.202 81.77-110.39-28.467-5.693-58.035-5.52-85.343-16.772 1.489 1.565-.462 3.316-1.41 4.643.337 2.573-1.532 4.454-3.83 5.143-22.281 29.122-39.168 63.61-42.694 100.544.938 12.58-10.315 27.108-21.151 13.9-8.475-36.768 24.863-94.228 54.178-116.916-29.397-20.184-20.828-49.312-39.284-49.446-4.77 9.157-10.992 17.924-18.835 24.726-3.545 2.883-7.85 5.057-11.655 7.615-4.002 2.691-8.168-3.229-5-6.479l.837-1.005c12.037-14.402 26.33-28.56 28.817-48.044 3.594-23.996-7.187-48.305-15.451-70.224-15.843-42.02-26.351-85.743-31.47-130.36-5.8-39.976 1.253-81.442-12.428-120.126-2.72-10.773-6.63-20.585-11.424-29.69a3 3 0 0 1-.33-.312c-5.691-6.585-10.237-13.91-15.543-20.807-5.55-7.215-11.565-14.08-17.937-20.578-10.65-10.856-22.406-19.914-34.662-28.636a4 4 0 0 1-.686-.324c-2.296-1.357-4.501-3.005-6.63-4.816l-.206-.144c-7.127-4.955-14.4-10.333-19.963-17.06-5.46-6.605-9.346-14.307-13.804-21.582-6.094-7.436-11.903-15.403-19.252-21.599-4.157-2.374-8.483-4.61-12.193-7.58a41 41 0 0 0-1.852-.723c1.58 6.448 3.973 12.381 6.128 18.931 3.122-1.318 7.395.143 7.92 4.954l.193 1.796c3.135 29.463 4.722 65.115-12.6 90.624-38.141 55.32-95.112 8.09-123.925-30.809-25.857-31.023-47.595-65.53-63.648-102.617l-.266-.49c-2.99-5.675-9.468-22.982-11.298-31.298-4.63-2.438-10.261-3.619-15.604-4.273M505.946 1070.751a2.2 2.2 0 0 1-.392.382c5.41 7.686 10.564 15.634 15.876 23.346-4.355-7.12-8.45-14.295-12.074-21.549-1.134-.732-2.274-1.454-3.41-2.179m-302.752-298.57c20.674 112.264 50.219 230.38 132.543 314.317-25.621-36.096-45.545-78.235-51.342-122.372-.24-11.845 4.073-24.358 17.177-26.112 2.236-.3 3.935 1.704 4.734 3.486l.077.177c5.155 12.308 11.858 24.013 19.795 34.738l.778 1.015c5.99 7.747 31.411 39.325 34.958 24.23-2.596-76.303-81.44-107.762-94.351-212.85-22.092-2.34-43.056-10.734-64.37-16.63m169.493 222.684a41 41 0 0 1 .108 3.552 25 25 0 0 1 3.606-1.173 151 151 0 0 1-3.714-2.379m-1.17-8.222c.434 2.193.8 4.405 1.025 6.595 2.25.716 4.476 1.5 6.69 2.313a46 46 0 0 1-3.816-3.84 49 49 0 0 1-3.898-5.068m30.47-520.843c-16.15 45.077-34.237 89.46-54.432 132.876-13.56 25.406-22.607 55.01-41.371 77.057q-.274.265-.555.493l.31.012c5.592.248 35.972 3.238 20.378 10.11-6.055 23.863-13.988 47.181-20.621 70.887l-.148.687c-2.427 11.466-5.496 34.562-21.781 26.853-1.767 1.351-3.888 2.302-6.17 2.938 7.32 64.25 47.952 106.075 80.07 158.532-7.18-27.684-5.081-56.595-2.581-84.862l.62-6.956c13.27-129.606 61.973-257.054 46.28-388.627m134.879 411.975c-26.177-32.636-154.931-355.744-63.942-159.993 32.339 68.146 58.958 141.101 112.309 196.317 3.689 3.964-1.171 10.931-5.965 7.73-17.221-11.499-31.16-26.752-42.402-44.054M443.68 487.251c-.108-.524.563-.812.858-.363 34.983 69.07 59.96 143.297 99.488 210.276 23.86 41.474 52.49 80.135 85.276 114.997 2.463 2.619-1.242 6.236-3.91 3.91C531.8 729.72 486.297 604.195 443.68 487.252m689.812 284.363-.057.01-.86 2.225c-.293.75-.59 1.51-.89 2.272.143-.063.287-.12.43-.18.308-.31.615-.623.922-.952a8.6 8.6 0 0 1 .455-3.375M153.202 643.978c-4.752 1.865-10.59 2.217-15.843 2.672 5.88 27.71 10.958 55.63 16.28 83.412 2.462 8.528 8.248 11.522 16.256 14.226l6.436 2.058c30.046 9.628 60.263 19.518 91.245 25.423 2.178-1.418 5.272-1.349 6.718.923 1.507.141 3.054.224 4.583.37 8.278-30.572 22.443-60.196 41.398-85.555-52.981 1.708-106.345-12.265-156.747-27.888-2.041.991-4.73.371-5.59-1.974l-.777-.222c-8.461-2.511-19.68-8.677-1.898-5.545-1.074-2.504-1.67-5.196-2.061-7.9m1218.253-22.622c-35.12-5.805-61.957 22.65-91.93 35.712-17.944 7.698-65.765 31.574-83.15 23.632-23.835 22.944-43.96 49.751-58.031 79.83 3.836-.23 7.673-.4 11.51-.522 6.949-2.23 14.367-2.345 21.582-.198 72.27.796 144.59 14.84 216.57-2.959l1.656-.309c14.786-2.805 65.268-13.477 68.144-23.934-.755-4.552-14.33.257-16.938.772-20.746 4.087-41.825 6.036-62.847 8.083-5.847.566-5.773-8.53 0-9.108 25.304-2.518 49.279-12.017 72.498-21.9 2.468-1.095 9.007-3.362 13.53-6.303-21.452 3.648-43.558 4.281-65.265 3.507-7.473-.967-8-12.319 0-12.095 14.654 1.62 28.654-5.614 40.617-13.25l2.603-1.69c19.94-13 18.548-13.562-6.652-8.73-37.031 6.742-74.508 6.492-111.904 3.92-5.337-.09-9.022-7.273-4.606-11.12 17.219-14.869 35.679-28.129 52.613-43.338m-169.752 54.154-.407.387c-.86.824-1.565 1.554-1.959 1.942l-.16.154c-.528.497-1.041 1.011-1.565 1.513 2.296.771 4.829.815 7.442.41-1.577-.986-2.75-2.597-3.351-4.406M541.835 556.49l.197.212c22.59 24.446 45.488 64.09 64.203 95.354 2.467 25.626-52.869-80.694-64.315-95.459zm568.55 94.581q.328.407.634.836l.302.432.486-.3c.179-.107.367-.173.559-.222-.662-.243-1.321-.498-1.981-.746m-103.358-83.453c20.326 3.191-21.238 28.445-26.724 32.063-3.513 1.335-36.914 28.912-34.888 19.961l.945-1.208c15.556-19.798 36.757-42.437 60.667-50.816m-795.128-52.923c7.518-12.108 48.433 3.832 61.366 5.741 7.27 1.919 14.46 4.19 21.809 5.802 5.742 2.083 32.516.064 22.69 11.415-10.253 5.511-23.64 1.251-34.14-1.675-20.89-5.707-41.853-12.365-63.246-15.532q-.962-.482-.12.653c4.603 10.226 14.28 19.82 25.182 23.116.753.218.436 1.369-.326 1.175-11.898-2.362-39.608-15.564-33.215-30.695"/></g></svg>