<svg xmlns="http://www.w3.org/2000/svg" width="473" height="567" viewBox="0 0 473 567"><title>head/mono/Cornrows</title><g id="head/mono/Cornrows" fill="none" fill-rule="evenodd" stroke="none" stroke-width="1"><path id="🎨-Background" fill="#fff" d="M430.548 316.86c6.194-44.703-7.034-87.844-24.171-128.7-.941-2.488-2.434-4.643-4.353-6.175-48.363-97.477-119.426-106.304-218.565-99.59-2.93-.066-3.103-.014-5.327-1.009-.368-39.598-45.593-60.573-80.008-47.508-152.632 70.93-104.638 270.614-74.265 400.98q16.255 75.695 32.513 151.39c.364 1.687 1.13 3.146 2.15 4.376a145 145 0 0 1-4.693 1.683c-3.526 1.2-2.125 6.457 1.545 5.605 3.597-.835 7.063-1.954 10.492-3.173 5.346 1.16 9.828-2.333 14.025-5.119 49.146-19.434 69.778-83.305 82.384-130.358 51.25 36.16 133.144 63.242 191.743 30.726 54.908-33.066 74.682-102.04 70.78-162.92 4.008-1.844 5.625-5.864 5.73-10.055h.024q-.003-.076-.004-.153"/><path id="🖍-Ink" fill="#000" d="M84.04 37.602c11.332-7.34 25.875-10.072 39.225-9.537 7.12.285 13.767 2.06 20.33 4.726 6.085 2.472 11.449 6.023 17.373 8.729.36.164.088.669-.252.6-7.015-1.416-15.252-.56-22.365.453l-.707.102c-6.991 1.015-14.105 1.54-20.996 3.15-12.694 2.968-24.501 9.433-31.468 20.678-9.097 14.686-11.43 33.696-10.456 50.64.492 8.573 2.182 17.007 4.814 25.18 1.58 4.905 5.25 9.84 6.966 14.987a219 219 0 0 1 4.047-7.231c-6.355-2.995-8.137-11.32-8.466-18.831-.98-.946-1.61-2.315-1.63-3.572-.056-3.38.739-6.438 2.09-9.237.773-7.928 2.409-15.832 5.225-23.261 11.053-29.167 40.212-55.455 73.279-52.858 9.088.714 17.93 4.573 22.63 12.777 3.775 6.588 3.8 14.535 1.196 21.542a25.8 25.8 0 0 1-2.956 5.67 930 930 0 0 1 10.725-2.635c12.396-2.988 24.855-5.33 37.547-6.631 17.285-1.772 34.926.909 50.765 7.808a352 352 0 0 1 12.964 3.599c18.909 5.638 38.309 13.002 53.582 25.87 7.027 5.922 12.056 12.81 16.138 20.374 15.289 13.63 29.909 29.083 40.229 46.759 21.263 36.419 26.34 81.468 27.215 122.87.803 38.035-2.538 76.459-9.666 113.83-3.236 16.96-8.467 32.722-19.05 46.63-11.783 15.49-27.5 27.693-45.136 35.88-35.905 16.67-80.344 19.096-115.244-1.557-10.497-6.211-1.045-22.402 9.558-16.351 34.455 19.66 78.427 15.17 111.579-5.674 14.005-8.805 26.074-20.846 33.74-35.591 5.6-10.77 8.002-23.12 10.083-35.145l1.106-6.432c6.423-36.978 9.327-74.907 7.782-112.42-1.542-37.42-7.477-77.95-28.673-109.763-11.18-16.78-25.437-31.48-40.412-44.884a827 827 0 0 0-3.161-2.815c-5.853-3.517-11.92-6.588-17.888-9.21l-1.27-.548c-3.434-1.464-8.235-3.354-12.69-4.866-6.368-2.161-12.84-4.081-19.337-5.811a325 325 0 0 0-10.26-2.534 169 169 0 0 1 3.554 3.339c5.534 5.377 9.924 11.767 15.17 17.405.594.636-.154 1.564-.908 1.177-7.98-4.094-16.827-6.744-25.158-10.061-7.877-3.136-15.532-6.746-23.27-10.206-1.937-.868-3.87-1.795-5.796-2.712-7.61.078-15.218.257-22.81.69 9.178 6.533 17.56 14.254 24.503 22.72.573.698.052 1.815-.912 1.568-14.534-3.722-28.356-9.191-42.17-14.923l-6.61-2.751c-4.858-.246-9.723-.361-14.59-.29l-2.357.04c-5.109.098-10.207.3-15.27 1.074-1.204.183-2.384.357-3.556.517-7.125 2.908-13.981 6.414-20.15 11.035l1.607-.095c9.754-.555 19.699.285 29.145 2.803 18.354 4.895 34.015 16.682 45.41 31.71.342.45-.321 1.077-.768.77-14.337-9.814-30.966-14.758-48.003-17.443-8.235-1.3-16.716-1.746-25.03-1.1-6.884.536-14.005 2.96-20.854 1.784a144 144 0 0 0-5.386 7.168q1.36-.088 2.735-.154c9.836-.462 19.853.169 29.457 2.433 19.183 4.525 35.213 16.04 49.877 28.684.29.25-.084.696-.398.516-15.903-9.178-34.387-11.921-52.402-13.577-9.072-.834-18.246-1.212-27.338-.488-4.165.33-8.284 1.018-12.437 1.445-.336.035-.685.044-1.031.06a228 228 0 0 0-8.201 17.215c7.514-2.016 15.62-3.074 23.379-2.552 15.758 1.06 31.388 8.286 43.967 17.527.394.289.174 1.059-.361.857-13.692-5.173-27.265-5.215-41.554-3.22-6.7.937-13.33 2.207-19.802 4.199-3.254 1.002-6.471 2.095-9.56 3.534-1.401.652-2.766 1.412-4.146 2.129a207 207 0 0 0-2.981 11.337c23.356 1.317 45.359 12.34 64.508 24.993.463.306.174 1.158-.398.942-11.431-4.313-23.866-6.307-35.991-7.468-10.602-1.015-21.006-.463-31.547-.167a209 209 0 0 0-1.353 12.047c1.695.475 3.358.987 4.957 1.468 5.259 1.58 10.508 3.707 15.415 6.173 9.968 5.009 18.045 11.78 26.172 19.307.424.393-.018 1.25-.593 1.018-9.433-3.813-19.74-6.255-29.67-8.416a474 474 0 0 0-15.455-3.097 47 47 0 0 0-1.518-.245c-.049 9.176.47 18.355 1.614 27.46l.222 1.706c.62 4.608.113 9.065-2.938 12.248 4.22-2.805 9.048-4.748 14.399-5.493 14.09-1.961 27.139 3.669 36.006 14.559.415.509-.225 1.177-.73.729-8.604-7.657-21.865-9.012-32.552-5.407-9.894 3.337-17.332 11.304-20.313 21.273-3.168 10.594-1.717 22.29 4.06 31.734 2.878 4.705 7.035 8.91 12.237 10.98.642.256 1.296.469 1.957.654 3.14-1.148 6.519-.628 9.748.827l.419.197c2.06-.012 4.11-.075 6.104-.057 3.879.037 5.744 4.155 4.116 7.22.923 1.69 1.599 3.59 2.41 5.248 1.465 2.99 2.999 5.96 4.54 8.913 2.182 2.502 4.265 5.092 5.679 8.112a32 32 0 0 1 1.548 3.927 278 278 0 0 0 3.706 5.44c4.08 5.828 8.377 11.349 13.142 16.64 2.864 3.18 6.159 6.019 9.19 9.067.92.122 1.82.748 2.105 1.648l.248.86c.977 1.102 1.912 2.236 2.754 3.444 1.868 2.679 1.356 5.397-.285 7.356 2.599 16.216.829 33.468-2.648 49.192-2.248 10.16-4.873 20.31-8.396 30.112-1.791 4.982-3.96 9.768-6.957 14.144-1.643 2.398-3.783 5.19-6.183 7.473-.365 2.656-.84 5.29-1.518 7.872-8.051 30.597-41.007 39.912-68.601 43.82-5.326.753-10.597-.533-13.498-5.494a11.5 11.5 0 0 1-1.362-3.65 9.5 9.5 0 0 1-3.395-1.691 148 148 0 0 1-.626 5.786c-.631 4.862-7.194 6.324-8.84 1.196-6.941-21.642-10.712-44.461-15.47-66.7-4.746-22.192-10.047-44.266-14.952-66.424l-6.21-27.965c-15.155-68.476-29.349-137.828-25.865-208.255 1.902-38.444 8.956-76.788 24.054-112.314 12.577-29.595 33.803-62.844 68.092-68.895.236-.041.446-.017.642.033 4.072-5.295 8.937-9.958 14.72-13.704m20.69 372.225c2.766 9.173 4.74 18.577 5.814 28.174 1.789 15.995.902 32.38.125 48.418-.715 14.734-2.412 29.596-5.301 44.064-2.773 13.892-7.12 27.512-13.58 40.149a96 96 0 0 1-3.348 5.986c3.573-1.191 6.799-2.577 10.159-4.5 4.229-2.42 8.099-5.54 10.216-8.83 3.398-5.28 4.538-11.144 5.035-17.436 1.278-16.182 1.869-32.412 2.684-48.621l.18-3.53c1.319-25.326 3.047-51.298.466-76.651-3.631-.954-6.907-2.827-9.93-5.177a80 80 0 0 1-2.52-2.046m-27.614-30.668c.763 7.704 1.493 15.409 2.154 23.12 2.345 27.37 3.794 54.894 2.46 82.36-.693 14.303-2.087 28.646-4.497 42.767-1.086 6.365-2.4 12.728-3.867 19.024l-.494 2.096c-1.49 6.236-2.438 14.03-7.206 18.565l.036.94c3.347-5.08 6.443-10.79 8.66-16.107 9.879-23.69 11.684-49.477 13.469-74.736 1.1-15.567 1.915-31.154 3.188-46.708l.618-7.485c.71-8.711 1.32-17.358 1.237-26.061-1.903-2.837-3.45-5.82-4.41-8.882a10 10 0 0 1-.333-1.49c-4.024-1.906-7.813-4.51-11.015-7.403m54.075 54.203c1.985 6.605 3.605 13.294 4.759 20.01 1.838 10.693 2.94 21.452 3.426 32.247l1.014-3.814c2.553-9.539 5.266-19.091 8.629-28.348-5.32-3.724-9.763-9.572-13.63-14.46a124 124 0 0 1-4.198-5.635m-76.17-293.74c-2.044 6.599-3.831 13.272-5.677 19.924-4.338 15.626-7.154 31.68-9.108 47.764-7.797 64.218-1.303 128.696 7.19 192.494 3.519 26.434 7.345 52.829 10.629 79.294.087-2.597.16-5.194.207-7.788.998-56.174-8.457-111.562-12.243-167.446l-.227-3.406c-1.716-26.129-2.766-52.746.34-78.78 1.598-13.4 4.414-26.514 8.16-39.462l2.231-7.606c1.508-5.114 3.11-10.364 5.012-15.455q-.382-.733-.721-1.473c-2.631-5.784-4.462-11.864-5.793-18.06m6.587-75.698c-19.626 25.303-36.095 52.182-46.06 83.098-22.803 70.756-17.712 146.417-4.497 218.539 6.227 33.982 14.257 67.568 21.584 101.314-7.843-60.6-17.957-121.065-19.567-182.247-.88-33.392.848-66.94 6.999-99.816l.364-1.933c2.636-13.894 5.902-28.615 12.587-41.101 3.63-6.78 7.637-13.107 12.389-19.163 2.004-2.554 4.254-4.602 6.64-6.475-.7-17.443 1.939-36.358 9.56-52.216m32.02 269.597c9.764.384 19.519 3.106 27.208 9.452 6.015 4.963-2.563 13.351-8.53 8.528-6.487-5.244-12.306-11.2-19.222-15.97-.824-.57-.598-2.055.544-2.01M77.43 307.506c-2.171 1.119-4.328 1.345-6.787.74a4 4 0 0 1-.262-.073l-.502-.163c.215 2.328.44 4.656.665 6.984 1.984-2.794 4.285-5.324 6.886-7.488m-9.72-140.491a280 280 0 0 0-1.726 21.74c-.291 7.08-.413 14.18-.446 21.283l-.01 3.044.014-.058a231 231 0 0 1 14.169-41.905c-1.044.174-2.104.146-3.148.02-2.388-.29-4.678-1.348-6.727-2.587a18 18 0 0 1-2.125-1.537m99.596-83.685c-4.173 1.886-8.203 4.054-12.391 5.897-8.305 3.656-16.431 7.906-24.117 12.73-7.778 4.884-15.271 10.025-22.162 16.115-.807.714-1.607 1.436-2.406 2.157a69 69 0 0 0-.331 4.75 59 59 0 0 0-.02 2.674c13.004-16.107 28.725-28.815 48.669-36.81 3.457-1.385 6.97-2.62 10.517-3.761a24.6 24.6 0 0 0 2.24-3.752m-.371-15.451c-2.32-3.078-8.985-2.827-13.188-2.141-6.796 1.11-12.782 3.486-18.607 6.926-6.885 4.064-12.824 9.57-17.471 16.046a112 112 0 0 1 6.996-3.637l1.63-.77c9.01-4.224 18.771-8.24 28.627-9.55 4.56-.605 9.464-1.482 14.07-.988-.226-2.24-.892-4.34-2.057-5.886"/></g></svg>