<svg xmlns="http://www.w3.org/2000/svg" width="473" height="567" viewBox="0 0 473 567"><title>head/mono/Short 4</title><g id="head/mono/Short-4" fill="none" fill-rule="evenodd" stroke="none" stroke-width="1"><path id="🎨-Background" fill="#fff" d="M430.405 143.845c-.336-11.958-17.729-16.923-22.754-5.08a16 16 0 0 1-.969.895c1.573-1.349-1.716.883-2.25 1.16-.459.235-.927.448-1.394.668-3.232-30.294-14.204-62.952-42.556-78.158-39.544-19.176-85.237-22.919-128.62-21.014-21.977 1.304-47.355 4.818-66.88-6.3-6.084-3.464-10.96-8.917-17.836-11.058-21.703-5.87-31.547 16.415-28.59 34.742-9.258.073-18.44 5.198-22.436 13.636-2.346 4.994-2.305 10.383-4.328 15.395-6.207 12.71-15.088 21.846-10.067 37.256-8.83 10.05-3.796 25.262 3.33 34.883 3.52 5.004 7.71 9.808 10.288 15.41 2.502 5.362-1.275 11.722-3.377 16.806-15.54 36.85-14.652 77.43-6.29 115.866-16.78 7.281-21.816 30.041-10.874 44.372 3.765 5.066 8.358 6.946 13.567 10.063 6.592 3.628 1.208 18.16 3.32 25.178 2.867 17.133 18.467 27.684 33.892 16.558 9.788-1.48 17.683 26.998 24.791 34.146 4.38 5.76 9.241 10.932 14.527 15.705 15.75 40.525 96.456 61.075 136.358 58.73 41.785-4.376 69.974-39.862 93.446-71.356 12.053-16.78 19.892-35.563 22.743-56.048 2.864-20.588 1.611-41.213-.325-61.826-4.067-43.796-10.483-106.892-14.626-151.16 14.972-1.234 28.364-13.98 27.91-29.469"/><path id="Fill-4" fill="#4f66af" d="M104.018 117.514c-.014.062.007.11.02.175l.011-.052z"/><path id="Fill-6" fill="#4f66af" d="M104.014 118.15c-.055-.057-.133-.1-.211-.158l-.004.006c.073.048.143.103.215.153"/><path id="🖍-Ink" fill="#000" d="M428.024 149.504c4.918-4.086 12.665-.324 10.999 6.403-1.813 7.326-9.665 12.332-16.147 15.342-6.672 3.097-13.171 3.694-20.45 3.356l-.09-.02c2.02 8.103 3.167 16.526 4.713 24.678a5378 5378 0 0 1 5.793 31.041c1.839 10.006 4.164 20.025 5.577 30.081 1.425 10.151 2.793 20.31 4.193 30.463 2.336 16.96 4.222 33.996 6.21 51.004l.948 8.05c1.992 17.04 3.595 34.1-.18 51.057-3.536 15.892-11.504 30.716-20.746 43.982-9.051 12.99-19.162 25.48-30.261 36.78-21.41 21.79-47.81 39.243-78.765 42.48-13.33 1.394-27.565-.157-40.096-5.002l-.832-.325c-12.685-5.008-28.219-13.583-31.52-27.655-2.027-8.632 6.868-15.37 14.667-11.275 3.613 1.899 6.33 4.067 9.297 6.787l.526.485c2.424 2.251 3.357 2.943 6.154 4.704 5.737 3.61 10.037 5.317 16.553 6.957 12.014 3.022 24.98 2.544 37.176-1.03 25.894-7.588 45.982-27.388 63.19-47.24 9.345-10.782 18.214-22.09 25.054-34.656 7.177-13.183 10.49-27.024 10.29-42.024-.224-16.925-2.563-33.916-4.098-50.76-1.564-17.174-3.01-34.34-4.284-51.538-1.194-16.127-1.309-32.326-1.726-48.504l-.082-3.033c-.245-8.588-.415-17.179-.61-25.769-.193-8.565-.871-17.239.01-25.768.064-.62.9-.778 1.105-.15.52 1.598.975 3.221 1.405 4.853a.8.8 0 0 1 .23-.126c5.704-1.96 10.957-5.873 15.237-10.093 4.084-4.027 6.217-9.926 10.56-13.535M115.947 29.507c3.583-14.716 19.707-18.003 31.63-10.916 5.735 3.408 10.327 8.323 15.684 12.229a68.5 68.5 0 0 0 17.423 9.206c12.339 4.376 25.355 5.967 38.396 6.024 31.74.139 62.831-8.781 94.618-7.786 24.596.77 50.702 8.039 68.543 25.819 9.611 9.578 15.804 21.892 19.126 34.965 1.553 6.11 2.71 12.368 3.623 18.611l.223 1.56c.511 3.65 1.331 7.513 1.407 11.2.069 3.313-.769 6.779-1.223 10.057-.957 6.91-11.66 6.123-13.198 0-3.502-13.941-2.036-28.33-6.316-42.222-3.795-12.32-11.15-23.092-21.807-30.46-44.959-31.08-102.614-5.052-152.15-7.47-12.107-.591-24.392-2.462-35.812-6.631-5.889-2.15-11.687-4.772-17.026-8.07-4.892-3.02-9.13-6.814-13.658-10.305l-1.998-1.519c-3.104-2.335-8.389-5.987-11.521-2.897-1.363 1.345-1.445 4.385-1.42 6.707l.015 1.05c.142 9.858 2.151 19.698-1.538 29.222-1.683 4.344-6.36 7.083-10.808 4.623l-.23-.132c-9.409-5.598-21.771 5.65-14.543 14.958l.225.282c4.067 4.942 1.899 13.645-5.38 13.623l-.262-.004c-12.968-.405-18.722 15.802-7.544 22.883l.344.212c9.075 5.43 1.115 18.488-8.186 14.005.788.38-.582.375-1.366 1.427-.753 1.01-.809 1.884-.63 3.16.543 3.866 3.943 7.124 6.697 9.57 6.256 5.557 14.011 9.394 22.002 11.73 32.01 9.358 64.85-2.09 96.038-9.002 32.515-7.207 69.239-10.11 97.595 10.34.337.243.042.784-.331.568-20.35-11.818-45.274-10.77-67.519-5.924-29.17 6.354-58.085 18.18-87.96 21.297 8.387 14.806 11.897 32.293 9.657 49.228-1.542 11.657-6.182 21.77-11.662 32.017l-1.045 1.953c-4.886 9.198-8.67 17.887-8.731 28.543-.059 10.587-15.798 12.819-18.466 2.5-6.057-23.435 16.009-41.894 25.012-61.22 7.695-16.52 7.932-35.78 1.705-52.695-7.026.565-14.107.624-21.259-.014-6.143-.55-12.463-1.656-18.623-3.408l-2.464 10.36c-3.265 13.799-6.29 27.589-7.207 41.922-.675 10.532-.639 21.116.388 31.622.888 9.074 2.762 17.825 4.669 26.684 1.636 2.158 2.472 5.46 2.012 8.092 10.62 3.058 18.973 11.438 22.025 22.537.186.676-.76 1.056-1.114.47-7.241-12.014-25.887-16.435-37.682-8.498-11.264 7.578-15.707 22.878-9.331 34.99 3.354 6.368 8.326 10.844 14.738 13.925l1.289.606c3.36 1.59 6.444 3.322 8.605 6.516 2.803 4.142 2.898 8.52 2.633 13.253l-.115 1.918c-.177 3.173-.217 6.439.728 9.49l.215.68c.249.76.511 1.432.966 2.159.136.216 1.412 1.468 1.828 1.92l.524.159.586.024c.65.01 1.504-.272 1.224-.077l.076-.043c.247-.154.474-.316.665-.46l.363-.284a10.2 10.2 0 0 1 3.218-3.014l1.247-.555c3.239-3.42 8.789-1.623 11.111 1.784 1.671 2.45 2.57 4.94 2.644 7.398.261-.42.841-.648 1.21-.18l2.202 2.806c8.423 10.763 16.701 21.593 26.273 31.404a175 175 0 0 0 16.874 15.165c5.062 3.995 14.664 7.839 14.811 15.116.046 2.362-1.631 4.035-3.683 4.837-6.678 2.608-14.931-6.265-19.755-10.583l-.394-.35c-5.904-5.17-11.292-10.846-16.264-16.916-9.657-11.791-17.732-25.362-21.291-40.291-.167 2.605-1.285 5.158-3.461 7.567-2.897 3.206-6.862 5.454-11.097 6.38-9.595 2.097-18.963-1.356-24.672-9.351-4.825-6.76-6.246-15.684-5.624-23.85l.077-.98c.088-1.31.2-3.713.538-4.735l-3.021-1.66c-3.704-1.97-7.137-4.554-10.218-7.394-12.383-11.416-18.596-29.97-12.935-46.204 3.541-10.156 10.982-18.993 20.51-23.586-1.593-3.68-2.125-8.051-2.726-11.919l-.101-.64c-1.019-6.343-1.872-12.767-2.197-19.187-.608-11.99.131-24.092 2.015-35.943 3.06-19.25 9.395-39.663 21.007-55.811-8.859-3.518-17.013-8.611-23.307-15.683-6.577-7.39-10.77-17.97-5.684-27.355a20.2 20.2 0 0 1 4.926-6c-3.366-6.356-4.455-13.868-2.378-21.048 2.482-8.584 9.221-15.28 17.362-18.405-1.977-8.133-.361-16.881 5.68-23.66 5.992-6.723 15.297-9.172 23.909-7.635.467-8.65-2.256-17.85-.178-26.381m-24.155 303.7c7.896-3.864 17.254-3.25 25.141.412l.534.253c8.611 4.176 20.016 13.932 17.279 24.308-1.602 6.068-8.344 8.14-13.572 5.52-4.367-2.188-5.363-6.101-7.554-10.032-1.549-2.78-3.464-4.953-5.713-7.188-4.741-4.71-10.066-8.207-16.115-11.006-.872-.404-.842-1.854 0-2.267m198.954-209.73c-.74-.338-.203-1.497.542-1.285 19.841 5.666 38.34 18.384 49.394 36.037.674 1.077.777 2.85 0 3.916l-.357.484c-.507.662-1.008 1.15-1.96 1.298-1.793.278-3.35-.189-4.382-1.782-10.89-16.826-24.842-30.254-43.237-38.668m132.826 3.332c1.68-2.847 6.138-2.274 7.025.918l.128.278c.48 1.088.261 1.31-.632.695 2.212 1.822 3.213 4.536 2.537 7.454-3.652 15.76-21.503 27.014-37.065 25.465-1.358-.135-1.543-1.804-.312-2.302 5.987-2.424 11.3-6.36 15.574-11.192 4.153-4.696 5.9-10.069 8.134-15.74.838-2.129 2.142-3.662 3.979-4.499q.365-.503.632-1.077m-88.497-10.128.107.007c7.996 1.033 14.913 4.979 20.528 10.761 5.408 5.568 12.233 14.756 11.648 22.927-.387 5.417-8.089 8.514-10.963 2.97-1.715-3.308-2.104-6.934-3.305-10.432-1.102-3.206-2.624-6.25-4.446-9.105-3.75-5.882-8.909-10.865-14.19-15.361-.619-.526-.188-1.764.62-1.767m-205.085-2.4c-1.773-1.688.07-4.566 2.326-3.996 11.893 3.01 23.67 6.673 36.036 7.037 6.176.18 12.317-.306 18.435-1.105l3.097-.412c4.771-.622 9.624-1.111 14.34-.131 3.144.653 3.758 4.703 1.799 6.816-9.251 9.979-27.095 9.025-39.364 7.343-13.323-1.828-26.766-6.118-36.67-15.552m214.765-31.105c-.814-1.129.556-2.91 1.852-2.41 11.819 4.568 24.206 16.461 27.462 28.904.86 3.287-3.285 5.77-5.72 3.33-4.535-4.548-7.737-9.919-11.571-15.03-3.821-5.095-8.292-9.62-12.023-14.794m-193.653 5.557c-.948-.947.006-2.833 1.368-2.35 7.695 2.724 15.448 5.082 23.532 6.32 8.28 1.265 16.638.303 24.96.816 3.368.207 5.66 5.445 1.918 7.075-16.632 7.241-39.222.675-51.778-11.86m21.247-16.241c-1.322-.978-.57-3.662 1.229-2.913 7.328 3.05 14.739 3.8 22.603 3.487 2.905-.117 3.516 4.448.685 5.064-8.693 1.89-17.413-.386-24.517-5.638"/></g></svg>